<svg width="24" height="24" viewBox="0 0 24 24" fill="none" xmlns="http://www.w3.org/2000/svg">
<mask id="mask0_302_293" style="mask-type:alpha" maskUnits="userSpaceOnUse" x="0" y="0" width="24" height="24">
<path fill-rule="evenodd" clip-rule="evenodd" d="M11.6888 2.28487C12.3086 2.14461 12.9464 2.43698 13.2281 2.99053L15.7309 7.90899L21.3284 8.70205C21.8442 8.77512 22.2724 9.12579 22.4332 9.60665C22.594 10.0875 22.4593 10.6152 22.086 10.9679L18.0361 14.7932L18.9921 20.1971C19.0803 20.6955 18.869 21.1992 18.4472 21.4964C18.0254 21.7936 17.4662 21.8327 17.0048 21.5973L12 19.0442L6.99517 21.5973C6.53375 21.8327 5.97456 21.7936 5.55276 21.4964C5.13096 21.1992 4.91972 20.6955 5.00788 20.1971L5.96385 14.7932L1.91404 10.9679C1.54065 10.6152 1.40605 10.0875 1.56682 9.60665C1.72758 9.12579 2.15584 8.77512 2.67158 8.70205L8.26918 7.90898L10.7531 3.02892C10.9248 2.66262 11.2643 2.38094 11.6888 2.28487Z" fill="#122333" fill-opacity="0.8"/>
</mask>
<g mask="url(#mask0_302_293)">
<rect x="-2" width="14" height="24" fill="#122333" fill-opacity="0.8"/>
</g>
<path d="M15.2853 8.13575C15.3592 8.28105 15.4993 8.38118 15.6608 8.40405L21.2583 9.19711C21.593 9.24453 21.8603 9.47014 21.959 9.76519C22.057 10.0583 21.9769 10.3831 21.7426 10.6044L17.6928 14.4297C17.5705 14.5452 17.5145 14.7146 17.5438 14.8803L18.4998 20.2842C18.5533 20.5869 18.4265 20.8993 18.1593 21.0876C17.8898 21.2775 17.529 21.3034 17.232 21.1519L12.2272 18.5988C12.0845 18.526 11.9155 18.526 11.7728 18.5988L6.76796 21.1519C6.47097 21.3034 6.11016 21.2775 5.84074 21.0876C5.57345 20.8993 5.44669 20.5869 5.50024 20.2842L6.45621 14.8803C6.48552 14.7146 6.42952 14.5452 6.30719 14.4297L2.25738 10.6044C2.02314 10.3831 1.94301 10.0583 2.04101 9.76519C2.13966 9.47014 2.40703 9.24453 2.74172 9.19711L8.33932 8.40403C8.50072 8.38117 8.64084 8.28106 8.71478 8.13578L11.1987 3.25572L11.2058 3.24121C11.312 3.01463 11.5251 2.83456 11.7992 2.77254C12.2032 2.68111 12.608 2.87437 12.7825 3.21729L15.2853 8.13575Z" stroke="#122333" stroke-opacity="0.8" stroke-linecap="round" stroke-linejoin="round"/>
</svg>
