<svg width="25" height="24" viewBox="0 0 25 24" fill="none" xmlns="http://www.w3.org/2000/svg">
<path fill-rule="evenodd" clip-rule="evenodd" d="M12.1888 2.28487C12.8086 2.14461 13.4464 2.43698 13.7281 2.99053L16.2309 7.90899L21.8284 8.70205C22.3442 8.77512 22.7724 9.12579 22.9332 9.60665C23.094 10.0875 22.9593 10.6152 22.586 10.9679L18.5361 14.7932L19.4921 20.1971C19.5803 20.6955 19.369 21.1992 18.9472 21.4964C18.5254 21.7936 17.9662 21.8327 17.5048 21.5973L12.5 19.0442L7.49517 21.5973C7.03375 21.8327 6.47456 21.7936 6.05276 21.4964C5.63096 21.1992 5.41972 20.6955 5.50788 20.1971L6.46385 14.7932L2.41404 10.9679C2.04065 10.6152 1.90605 10.0875 2.06682 9.60665C2.22758 9.12579 2.65584 8.77512 3.17158 8.70205L8.76918 7.90898L11.2531 3.02892C11.4248 2.66262 11.7643 2.38094 12.1888 2.28487Z" fill="#636E79"/>
<path d="M15.7853 8.13575C15.8592 8.28105 15.9993 8.38118 16.1608 8.40405L21.7583 9.19711C22.093 9.24453 22.3603 9.47014 22.459 9.76519C22.557 10.0583 22.4769 10.3831 22.2426 10.6044L18.1928 14.4297C18.0705 14.5452 18.0145 14.7146 18.0438 14.8803L18.9998 20.2842C19.0533 20.5869 18.9265 20.8993 18.6593 21.0876C18.3898 21.2775 18.029 21.3034 17.732 21.1519L12.7272 18.5988C12.5845 18.526 12.4155 18.526 12.2728 18.5988L7.26796 21.1519C6.97097 21.3034 6.61016 21.2775 6.34074 21.0876C6.07345 20.8993 5.94669 20.5869 6.00024 20.2842L6.95621 14.8803C6.98552 14.7146 6.92952 14.5452 6.80719 14.4297L2.75738 10.6044C2.52314 10.3831 2.44301 10.0583 2.54101 9.76519C2.63966 9.47014 2.90703 9.24453 3.24172 9.19711L8.83932 8.40403C9.00072 8.38117 9.14084 8.28106 9.21478 8.13578L11.6987 3.25572L11.7058 3.24121C11.812 3.01463 12.0251 2.83456 12.2992 2.77254C12.7032 2.68111 13.108 2.87437 13.2825 3.21729L15.7853 8.13575Z" stroke="#122333" stroke-opacity="0.8" stroke-linecap="round" stroke-linejoin="round"/>
</svg>
