<?xml version="1.0" standalone="no"?>
  <!DOCTYPE svg PUBLIC "-//W3C//DTD SVG 1.1//EN" "http://www.w3.org/Graphics/SVG/1.1/DTD/svg11.dtd" >
  <svg>
  <metadata>
  Created by font-carrier
  </metadata>
  <defs>
  <font id="Hauora" horiz-adv-x="2644" vert-adv-y="2644" >
    <font-face
      
      font-family="Hauora"
      
      font-weight="400"
      
      font-stretch="normal"
      
      units-per-em="2000"
      
      ascent="2132"
      
      descent="-600"
      
    />
      <missing-glyph />

      

      
      <glyph glyph-name="uni41" unicode="&#x41;" d="M40 0L564 1440L654 1440L1178 0L1088 0L578 1402L638 1402L130 0L40 0M240 374L240 454L976 454L976 374L240 374Z"  horiz-adv-x="1218" vert-adv-y="2000"  />

      
      <glyph glyph-name="unic1" unicode="&#xc1;" d="M660 1890L594 1620L660 1620L756 1890L660 1890M40 0L564 1440L654 1440L1178 0L1088 0L578 1402L638 1402L130 0L40 0M240 374L240 454L976 454L976 374L240 374Z"  horiz-adv-x="1218" vert-adv-y="2000"  />

      
      <glyph glyph-name="uni0102" unicode="&#x0102;" d="M610 1572Q548 1572 495.50 1602.50Q443 1633 412.50 1685.50Q382 1738 382 1800L460 1800Q460 1760 480.50 1725.50Q501 1691 535.50 1670.50Q570 1650 610 1650Q651 1650 685.50 1670.50Q720 1691 740 1725.50Q760 1760 760 1800L838 1800Q838 1738 807.50 1685.50Q777 1633 724.50 1602.50Q672 1572 610 1572M40 0L564 1440L654 1440L1178 0L1088 0L578 1402L638 1402L130 0L40 0M240 374L240 454L976 454L976 374L240 374Z"  horiz-adv-x="1218" vert-adv-y="2000"  />

      
      <glyph glyph-name="uni1EAE" unicode="&#x1EAE;" d="M647 2100L581 1830L647 1830L743 2100L647 2100M609 1572Q547 1572 494.50 1602.50Q442 1633 411.50 1685.50Q381 1738 381 1800L459 1800Q459 1760 479.50 1725.50Q500 1691 534.50 1670.50Q569 1650 609 1650Q650 1650 684.50 1670.50Q719 1691 739 1725.50Q759 1760 759 1800L837 1800Q837 1738 806.50 1685.50Q776 1633 723.50 1602.50Q671 1572 609 1572M40 0L564 1440L654 1440L1178 0L1088 0L578 1402L638 1402L130 0L40 0M240 374L240 454L976 454L976 374L240 374Z"  horiz-adv-x="1218" vert-adv-y="2000"  />

      
      <glyph glyph-name="uni1EB6" unicode="&#x1EB6;" d="M40 0L564 1440L654 1440L1178 0L1088 0L578 1402L638 1402L130 0L40 0M240 374L240 454L976 454L976 374L240 374M610 1572Q548 1572 495.50 1602.50Q443 1633 412.50 1685.50Q382 1738 382 1800L460 1800Q460 1760 480.50 1725.50Q501 1691 535.50 1670.50Q570 1650 610 1650Q651 1650 685.50 1670.50Q720 1691 740 1725.50Q760 1760 760 1800L838 1800Q838 1738 807.50 1685.50Q777 1633 724.50 1602.50Q672 1572 610 1572M609-390Q588-390 571-380.50Q554-371 544.50-354Q535-337 535-317Q535-296 544.50-279Q554-262 571-252.50Q588-243 609-243Q629-243 646-252.50Q663-262 673-279Q683-296 683-317Q683-337 673-354Q663-371 646-380.50Q629-390 609-390Z"  horiz-adv-x="1218" vert-adv-y="2000"  />

      
      <glyph glyph-name="uni1EB0" unicode="&#x1EB0;" d="M571 2100L475 2100L571 1830L637 1830L571 2100M609 1572Q547 1572 494.50 1602.50Q442 1633 411.50 1685.50Q381 1738 381 1800L459 1800Q459 1760 479 1725.50Q499 1691 533.50 1670.50Q568 1650 609 1650Q649 1650 683.50 1670.50Q718 1691 738.50 1725.50Q759 1760 759 1800L837 1800Q837 1738 806.50 1685.50Q776 1633 723.50 1602.50Q671 1572 609 1572M40 0L564 1440L654 1440L1178 0L1088 0L578 1402L638 1402L130 0L40 0M240 374L240 454L976 454L976 374L240 374Z"  horiz-adv-x="1218" vert-adv-y="2000"  />

      
      <glyph glyph-name="uni1EB2" unicode="&#x1EB2;" d="M447 2061Q478 2098 521.50 2115.50Q565 2133 609.50 2122.50Q654 2112 687 2069Q719 2027 717.50 1975.50Q716 1924 686 1879Q656 1834 607 1807L555 1855Q596 1877 619 1906.50Q642 1936 644.50 1966Q647 1996 631 2021Q607 2059 564.50 2054Q522 2049 485 2012L447 2061M609 1572Q547 1572 494.50 1602.50Q442 1633 411.50 1685.50Q381 1738 381 1800L459 1800Q459 1760 479.50 1725.50Q500 1691 534.50 1670.50Q569 1650 609 1650Q650 1650 684.50 1670.50Q719 1691 739 1725.50Q759 1760 759 1800L837 1800Q837 1738 806.50 1685.50Q776 1633 723.50 1602.50Q671 1572 609 1572M40 0L564 1440L654 1440L1178 0L1088 0L578 1402L638 1402L130 0L40 0M240 374L240 454L976 454L976 374L240 374Z"  horiz-adv-x="1218" vert-adv-y="2000"  />

      
      <glyph glyph-name="uni1EB4" unicode="&#x1EB4;" d="M596 1572Q534 1572 481.50 1602.50Q429 1633 398.50 1685.50Q368 1738 368 1800L446 1800Q446 1760 466.50 1725.50Q487 1691 521.50 1670.50Q556 1650 596 1650Q637 1650 671.50 1670.50Q706 1691 726 1725.50Q746 1760 746 1800L824 1800Q824 1738 793.50 1685.50Q763 1633 710.50 1602.50Q658 1572 596 1572M737 1850Q700 1850 663.50 1863.50Q627 1877 578 1903Q534 1925 507 1935.50Q480 1946 455 1946Q428 1946 413 1932.50Q398 1919 396 1899Q394 1879 401 1860L329 1860Q317 1905 330.50 1943Q344 1981 378 2003.50Q412 2026 457 2026Q495 2026 531.50 2012.50Q568 1999 619 1973Q663 1951 689.50 1940.50Q716 1930 741 1930Q777 1930 792 1957Q807 1984 795 2020L867 2020Q879 1976 865.50 1936.50Q852 1897 818 1873.50Q784 1850 737 1850M40 0L564 1440L654 1440L1178 0L1088 0L578 1402L638 1402L130 0L40 0M240 374L240 454L976 454L976 374L240 374Z"  horiz-adv-x="1218" vert-adv-y="2000"  />

      
      <glyph glyph-name="unic2" unicode="&#xc2;" d="M364 1620L564 1860L656 1860L856 1620L756 1620L610 1790L464 1620L364 1620M40 0L564 1440L654 1440L1178 0L1088 0L578 1402L638 1402L130 0L40 0M240 374L240 454L976 454L976 374L240 374Z"  horiz-adv-x="1218" vert-adv-y="2000"  />

      
      <glyph glyph-name="uni1EA4" unicode="&#x1EA4;" d="M917 2100L851 1830L917 1830L1013 2100L917 2100M363 1620L563 1860L655 1860L855 1620L755 1620L609 1790L463 1620L363 1620M40 0L564 1440L654 1440L1178 0L1088 0L578 1402L638 1402L130 0L40 0M240 374L240 454L976 454L976 374L240 374Z"  horiz-adv-x="1218" vert-adv-y="2000"  />

      
      <glyph glyph-name="uni1EAC" unicode="&#x1EAC;" d="M40 0L564 1440L654 1440L1178 0L1088 0L578 1402L638 1402L130 0L40 0M240 374L240 454L976 454L976 374L240 374M364 1620L564 1860L656 1860L856 1620L756 1620L610 1790L464 1620L364 1620M609-390Q588-390 571-380.50Q554-371 544.50-354Q535-337 535-317Q535-296 544.50-279Q554-262 571-252.50Q588-243 609-243Q629-243 646-252.50Q663-262 673-279Q683-296 683-317Q683-337 673-354Q663-371 646-380.50Q629-390 609-390Z"  horiz-adv-x="1218" vert-adv-y="2000"  />

      
      <glyph glyph-name="uni1EA6" unicode="&#x1EA6;" d="M815 2100L719 2100L815 1830L881 1830L815 2100M363 1620L563 1860L655 1860L855 1620L755 1620L609 1790L463 1620L363 1620M40 0L564 1440L654 1440L1178 0L1088 0L578 1402L638 1402L130 0L40 0M240 374L240 454L976 454L976 374L240 374Z"  horiz-adv-x="1218" vert-adv-y="2000"  />

      
      <glyph glyph-name="uni1EA8" unicode="&#x1EA8;" d="M836 1860Q867 1897 910.50 1914.50Q954 1932 998.50 1921.50Q1043 1911 1076 1868Q1108 1826 1106.50 1774.50Q1105 1723 1075 1678Q1045 1633 996 1606L944 1654Q985 1676 1008 1705.50Q1031 1735 1033.50 1765Q1036 1795 1020 1820Q996 1858 953.50 1853Q911 1848 874 1811L836 1860M364 1620L564 1860L656 1860L856 1620L756 1620L610 1790L464 1620L364 1620M40 0L564 1440L654 1440L1178 0L1088 0L578 1402L638 1402L130 0L40 0M240 374L240 454L976 454L976 374L240 374Z"  horiz-adv-x="1218" vert-adv-y="2000"  />

      
      <glyph glyph-name="uni1EAA" unicode="&#x1EAA;" d="M750 1910Q713 1910 676.50 1923.50Q640 1937 591 1963Q547 1985 520 1995.50Q493 2006 468 2006Q441 2006 426 1992.50Q411 1979 409 1959Q407 1939 414 1920L342 1920Q330 1965 343.50 2003Q357 2041 391 2063.50Q425 2086 470 2086Q508 2086 544.50 2072.50Q581 2059 632 2033Q676 2011 702.50 2000.50Q729 1990 754 1990Q790 1990 805 2017Q820 2044 808 2080L880 2080Q892 2036 878.50 1996.50Q865 1957 831 1933.50Q797 1910 750 1910M360 1620L560 1860L652 1860L852 1620L752 1620L606 1790L460 1620L360 1620M40 0L564 1440L654 1440L1178 0L1088 0L578 1402L638 1402L130 0L40 0M240 374L240 454L976 454L976 374L240 374Z"  horiz-adv-x="1218" vert-adv-y="2000"  />

      
      <glyph glyph-name="unic4" unicode="&#xc4;" d="M40 0L564 1440L654 1440L1178 0L1088 0L578 1402L638 1402L130 0L40 0M240 374L240 454L976 454L976 374L240 374M430 1667Q409 1667 392 1676.50Q375 1686 365.50 1703Q356 1720 356 1740Q356 1761 365.50 1778Q375 1795 392 1804.50Q409 1814 430 1814Q450 1814 467 1804.50Q484 1795 494 1778Q504 1761 504 1740Q504 1720 494 1703Q484 1686 467 1676.50Q450 1667 430 1667M790 1667Q769 1667 752 1676.50Q735 1686 725.50 1703Q716 1720 716 1740Q716 1761 725.50 1778Q735 1795 752 1804.50Q769 1814 790 1814Q810 1814 827 1804.50Q844 1795 854 1778Q864 1761 864 1740Q864 1720 854 1703Q844 1686 827 1676.50Q810 1667 790 1667Z"  horiz-adv-x="1218" vert-adv-y="2000"  />

      
      <glyph glyph-name="uni1EA0" unicode="&#x1EA0;" d="M40 0L564 1440L654 1440L1178 0L1088 0L578 1402L638 1402L130 0L40 0M240 374L240 454L976 454L976 374L240 374M609-390Q588-390 571-380.50Q554-371 544.50-354Q535-337 535-317Q535-296 544.50-279Q554-262 571-252.50Q588-243 609-243Q629-243 646-252.50Q663-262 673-279Q683-296 683-317Q683-337 673-354Q663-371 646-380.50Q629-390 609-390Z"  horiz-adv-x="1218" vert-adv-y="2000"  />

      
      <glyph glyph-name="unic0" unicode="&#xc0;" d="M558 1890L624 1620L558 1620L462 1890L558 1890M1178 0L654 1440L564 1440L40 0L130 0L640 1402L580 1402L1088 0L1178 0M978 374L978 454L242 454L242 374L978 374Z"  horiz-adv-x="1218" vert-adv-y="2000"  />

      
      <glyph glyph-name="uni1EA2" unicode="&#x1EA2;" d="M474 1860Q505 1897 548.50 1914.50Q592 1932 636.50 1921.50Q681 1911 714 1868Q746 1826 744.50 1774.50Q743 1723 713 1678Q683 1633 634 1606L582 1654Q623 1676 646 1705.50Q669 1735 671.50 1765Q674 1795 658 1820Q634 1858 591.50 1853Q549 1848 512 1811L474 1860M40 0L564 1440L654 1440L1178 0L1088 0L578 1402L638 1402L130 0L40 0M240 374L240 454L976 454L976 374L240 374Z"  horiz-adv-x="1218" vert-adv-y="2000"  />

      
      <glyph glyph-name="uni0100" unicode="&#x0100;" d="M370 1680L370 1764L850 1764L850 1680L370 1680M40 0L564 1440L654 1440L1178 0L1088 0L578 1402L638 1402L130 0L40 0M240 374L240 454L976 454L976 374L240 374Z"  horiz-adv-x="1218" vert-adv-y="2000"  />

      
      <glyph glyph-name="uni0104" unicode="&#x0104;" d="M1036-484Q990-484 949.50-459Q909-434 884.50-392.50Q860-351 860-304Q860-246 894-181.50Q928-117 985.50-54Q1043 9 1116 66L1178 0Q1116-41 1063.50-93.50Q1011-146 979.50-201.50Q948-257 948-304Q948-348 974-376Q1000-404 1036-404Q1062-404 1089.50-388.50Q1117-373 1140-346L1190-402Q1158-443 1118-463.50Q1078-484 1036-484M40 0L564 1440L654 1440L1178 0L1088 0L578 1402L638 1402L130 0L40 0M240 374L240 454L976 454L976 374L240 374Z"  horiz-adv-x="1218" vert-adv-y="2000"  />

      
      <glyph glyph-name="unic5" unicode="&#xc5;" d="M610 1560Q558 1560 513.50 1586Q469 1612 442.50 1656.50Q416 1701 416 1754Q416 1806 442.50 1850.50Q469 1895 513.50 1921.50Q558 1948 610 1948Q663 1948 707.50 1921.50Q752 1895 778 1850.50Q804 1806 804 1754Q804 1701 778 1656.50Q752 1612 707.50 1586Q663 1560 610 1560M610 1644Q656 1644 688 1676.50Q720 1709 720 1754Q720 1800 688 1832Q656 1864 610 1864Q565 1864 532.50 1832Q500 1800 500 1754Q500 1709 532.50 1676.50Q565 1644 610 1644M40 0L564 1440L654 1440L1178 0L1088 0L578 1402L638 1402L130 0L40 0M240 374L240 454L976 454L976 374L240 374Z"  horiz-adv-x="1218" vert-adv-y="2000"  />

      
      <glyph glyph-name="unic3" unicode="&#xc3;" d="M748 1670Q711 1670 674.50 1683.50Q638 1697 589 1723Q546 1745 518.50 1755.50Q491 1766 466 1766Q439 1766 424 1752.50Q409 1739 407 1719Q405 1699 412 1680L340 1680Q328 1725 341.50 1763Q355 1801 389 1823.50Q423 1846 468 1846Q506 1846 542.50 1832.50Q579 1819 630 1793Q674 1771 700.50 1760.50Q727 1750 752 1750Q788 1750 803 1777Q818 1804 806 1840L878 1840Q890 1796 876.50 1756.50Q863 1717 829 1693.50Q795 1670 748 1670M40 0L564 1440L654 1440L1178 0L1088 0L578 1402L638 1402L130 0L40 0M240 374L240 454L976 454L976 374L240 374Z"  horiz-adv-x="1218" vert-adv-y="2000"  />

      
      <glyph glyph-name="unic6" unicode="&#xc6;" d="M40 0L564 1440L870 1440L870 1356L572 1356L636 1398L130 0L40 0M240 374L240 454L876 454L876 374L240 374M830 0L830 1440L1710 1440L1710 1356L914 1356L914 762L1590 762L1590 678L914 678L914 84L1710 84L1710 0L830 0Z"  horiz-adv-x="1810" vert-adv-y="2000"  />

      
      <glyph glyph-name="uni42" unicode="&#x42;" d="M140 0L140 1440L686 1440Q790 1440 878.50 1395Q967 1350 1019.50 1269Q1072 1188 1072 1086Q1072 1011 1042 941.50Q1012 872 957.50 820Q903 768 832 742L828 790Q925 758 995.50 702.50Q1066 647 1105 567.50Q1144 488 1144 388Q1144 268 1088.50 180.50Q1033 93 937.50 46.50Q842 0 724 0L140 0M684 84Q789 84 872.50 119Q956 154 1004 221Q1052 288 1052 380Q1052 472 1007.50 549.50Q963 627 888 672.50Q813 718 724 718L224 718L224 84L684 84M686 800Q766 800 834 839Q902 878 942 945Q982 1012 982 1092Q982 1170 943 1230.50Q904 1291 836.50 1324.50Q769 1358 686 1358L224 1358L224 800L686 800Z"  horiz-adv-x="1202" vert-adv-y="2000"  />

      
      <glyph glyph-name="uni43" unicode="&#x43;" d="M706-30Q496-30 351 64.50Q206 159 133 328Q60 497 60 720Q60 943 133 1112Q206 1281 351 1375.50Q496 1470 706 1470Q871 1470 996 1411Q1121 1352 1202 1244Q1283 1136 1320 988L1232 968Q1183 1164 1049 1275Q915 1386 706 1386Q526 1386 401.50 1302Q277 1218 214.50 1068.50Q152 919 150 720Q148 523 211 372.50Q274 222 399.50 138Q525 54 706 54Q915 54 1049 165Q1183 276 1232 472L1320 452Q1283 304 1202 196Q1121 88 996 29Q871-30 706-30Z"  horiz-adv-x="1400" vert-adv-y="2000"  />

      
      <glyph glyph-name="uni0106" unicode="&#x0106;" d="M757 1890L691 1620L757 1620L853 1890L757 1890M706-30Q496-30 351 64.50Q206 159 133 328Q60 497 60 720Q60 943 133 1112Q206 1281 351 1375.50Q496 1470 706 1470Q871 1470 996 1411Q1121 1352 1202 1244Q1283 1136 1320 988L1232 968Q1183 1164 1049 1275Q915 1386 706 1386Q526 1386 401.50 1302Q277 1218 214.50 1068.50Q152 919 150 720Q148 523 211 372.50Q274 222 399.50 138Q525 54 706 54Q915 54 1049 165Q1183 276 1232 472L1320 452Q1283 304 1202 196Q1121 88 996 29Q871-30 706-30Z"  horiz-adv-x="1400" vert-adv-y="2000"  />

      
      <glyph glyph-name="uni010C" unicode="&#x010C;" d="M706-30Q496-30 351 64.50Q206 159 133 328Q60 497 60 720Q60 943 133 1112Q206 1281 351 1375.50Q496 1470 706 1470Q871 1470 996 1411Q1121 1352 1202 1244Q1283 1136 1320 988L1232 968Q1183 1164 1049 1275Q915 1386 706 1386Q526 1386 401.50 1302Q277 1218 214.50 1068.50Q152 919 150 720Q148 523 211 372.50Q274 222 399.50 138Q525 54 706 54Q915 54 1049 165Q1183 276 1232 472L1320 452Q1283 304 1202 196Q1121 88 996 29Q871-30 706-30M522 1860L622 1860L768 1690L914 1860L1014 1860L814 1620L722 1620L522 1860Z"  horiz-adv-x="1400" vert-adv-y="2000"  />

      
      <glyph glyph-name="unic7" unicode="&#xc7;" d="M696-478Q639-478 576-450L604-376Q654-396 690-396Q733-396 758.50-368Q784-340 784-302Q784-271 767-251.50Q750-232 725.50-220.50Q701-209 657-194Q655-194 653.50-193.50Q652-193 650-192L726 14L810 14L752-142Q807-165 839.50-205Q872-245 872-306Q872-353 848-392.50Q824-432 783.50-455Q743-478 696-478M706-30Q496-30 351 64.50Q206 159 133 328Q60 497 60 720Q60 943 133 1112Q206 1281 351 1375.50Q496 1470 706 1470Q871 1470 996 1411Q1121 1352 1202 1244Q1283 1136 1320 988L1232 968Q1183 1164 1049 1275Q915 1386 706 1386Q526 1386 401.50 1302Q277 1218 214.50 1068.50Q152 919 150 720Q148 523 211 372.50Q274 222 399.50 138Q525 54 706 54Q915 54 1049 165Q1183 276 1232 472L1320 452Q1283 304 1202 196Q1121 88 996 29Q871-30 706-30Z"  horiz-adv-x="1400" vert-adv-y="2000"  />

      
      <glyph glyph-name="uni0108" unicode="&#x0108;" d="M461 1620L661 1860L753 1860L953 1620L853 1620L707 1790L561 1620L461 1620M706-30Q496-30 351 64.50Q206 159 133 328Q60 497 60 720Q60 943 133 1112Q206 1281 351 1375.50Q496 1470 706 1470Q871 1470 996 1411Q1121 1352 1202 1244Q1283 1136 1320 988L1232 968Q1183 1164 1049 1275Q915 1386 706 1386Q526 1386 401.50 1302Q277 1218 214.50 1068.50Q152 919 150 720Q148 523 211 372.50Q274 222 399.50 138Q525 54 706 54Q915 54 1049 165Q1183 276 1232 472L1320 452Q1283 304 1202 196Q1121 88 996 29Q871-30 706-30Z"  horiz-adv-x="1400" vert-adv-y="2000"  />

      
      <glyph glyph-name="uni010A" unicode="&#x010A;" d="M706-30Q496-30 351 64.50Q206 159 133 328Q60 497 60 720Q60 943 133 1112Q206 1281 351 1375.50Q496 1470 706 1470Q871 1470 996 1411Q1121 1352 1202 1244Q1283 1136 1320 988L1232 968Q1183 1164 1049 1275Q915 1386 706 1386Q526 1386 401.50 1302Q277 1218 214.50 1068.50Q152 919 150 720Q148 523 211 372.50Q274 222 399.50 138Q525 54 706 54Q915 54 1049 165Q1183 276 1232 472L1320 452Q1283 304 1202 196Q1121 88 996 29Q871-30 706-30M726 1667Q705 1667 688 1676.50Q671 1686 661.50 1703Q652 1720 652 1740Q652 1761 661.50 1778Q671 1795 688 1804.50Q705 1814 726 1814Q746 1814 763 1804.50Q780 1795 790 1778Q800 1761 800 1740Q800 1720 790 1703Q780 1686 763 1676.50Q746 1667 726 1667Z"  horiz-adv-x="1400" vert-adv-y="2000"  />

      
      <glyph glyph-name="uni44" unicode="&#x44;" d="M140 0L140 1440L562 1440Q684 1440 754 1430Q908 1408 1014 1310.50Q1120 1213 1172 1060.50Q1224 908 1224 720Q1224 531 1172 379Q1120 227 1014.50 129.50Q909 32 754 10Q686 0 562 0L140 0M562 84Q674 84 740 96Q878 119 965.50 203.50Q1053 288 1093.50 419Q1134 550 1134 720Q1134 890 1093.50 1021Q1053 1152 965.50 1236.50Q878 1321 740 1344Q708 1350 659 1353Q610 1356 562 1356L230 1356L230 84L562 84Z"  horiz-adv-x="1304" vert-adv-y="2000"  />

      
      <glyph glyph-name="unid0" unicode="&#xd0;" d="M20 678L20 762L620 762L620 678L20 678M118 0L118 1440L540 1440Q662 1440 732 1430Q886 1408 992 1310.50Q1098 1213 1150 1060.50Q1202 908 1202 720Q1202 531 1150 379Q1098 227 992.50 129.50Q887 32 732 10Q664 0 540 0L118 0M208 84L540 84Q652 84 718 96Q856 119 943.50 203.50Q1031 288 1071.50 419Q1112 550 1112 720Q1112 890 1071.50 1021Q1031 1152 943.50 1236.50Q856 1321 718 1344Q686 1350 637 1353Q588 1356 540 1356L208 1356L208 84Z"  horiz-adv-x="1282" vert-adv-y="2000"  />

      
      <glyph glyph-name="uni010E" unicode="&#x010E;" d="M140 0L140 1440L562 1440Q684 1440 754 1430Q908 1408 1014 1310.50Q1120 1213 1172 1060.50Q1224 908 1224 720Q1224 531 1172 379Q1120 227 1014.50 129.50Q909 32 754 10Q686 0 562 0L140 0M230 84L562 84Q674 84 740 96Q878 119 965.50 203.50Q1053 288 1093.50 419Q1134 550 1134 720Q1134 890 1093.50 1021Q1053 1152 965.50 1236.50Q878 1321 740 1344Q708 1350 659 1353Q610 1356 562 1356L230 1356L230 84M322 1860L422 1860L568 1690L714 1860L814 1860L614 1620L522 1620L322 1860Z"  horiz-adv-x="1304" vert-adv-y="2000"  />

      
      <glyph glyph-name="uni0110" unicode="&#x0110;" d="M20 678L20 762L620 762L620 678L20 678M118 0L118 1440L540 1440Q662 1440 732 1430Q886 1408 992 1310.50Q1098 1213 1150 1060.50Q1202 908 1202 720Q1202 531 1150 379Q1098 227 992.50 129.50Q887 32 732 10Q664 0 540 0L118 0M208 84L540 84Q652 84 718 96Q856 119 943.50 203.50Q1031 288 1071.50 419Q1112 550 1112 720Q1112 890 1071.50 1021Q1031 1152 943.50 1236.50Q856 1321 718 1344Q686 1350 637 1353Q588 1356 540 1356L208 1356L208 84Z"  horiz-adv-x="1282" vert-adv-y="2000"  />

      
      <glyph glyph-name="uni45" unicode="&#x45;" d="M140 0L140 1440L1020 1440L1020 1356L224 1356L224 762L900 762L900 678L224 678L224 84L1020 84L1020 0L140 0Z"  horiz-adv-x="1120" vert-adv-y="2000"  />

      
      <glyph glyph-name="unic9" unicode="&#xc9;" d="M646 1890L580 1620L646 1620L742 1890L646 1890M140 0L140 1440L1020 1440L1020 1356L224 1356L224 762L900 762L900 678L224 678L224 84L1020 84L1020 0L140 0Z"  horiz-adv-x="1120" vert-adv-y="2000"  />

      
      <glyph glyph-name="uni011A" unicode="&#x011A;" d="M140 0L140 1440L1020 1440L1020 1356L224 1356L224 762L900 762L900 678L224 678L224 84L1020 84L1020 0L140 0M340 1860L440 1860L586 1690L732 1860L832 1860L632 1620L540 1620L340 1860Z"  horiz-adv-x="1120" vert-adv-y="2000"  />

      
      <glyph glyph-name="unica" unicode="&#xca;" d="M324 1620L524 1860L616 1860L816 1620L716 1620L570 1790L424 1620L324 1620M140 0L140 1440L1020 1440L1020 1356L224 1356L224 762L900 762L900 678L224 678L224 84L1020 84L1020 0L140 0Z"  horiz-adv-x="1120" vert-adv-y="2000"  />

      
      <glyph glyph-name="uni1EBE" unicode="&#x1EBE;" d="M873 2100L807 1830L873 1830L969 2100L873 2100M319 1620L519 1860L611 1860L811 1620L711 1620L565 1790L419 1620L319 1620M140 0L140 1440L1020 1440L1020 1356L224 1356L224 762L900 762L900 678L224 678L224 84L1020 84L1020 0L140 0Z"  horiz-adv-x="1120" vert-adv-y="2000"  />

      
      <glyph glyph-name="uni1EC6" unicode="&#x1EC6;" d="M140 0L140 1440L1020 1440L1020 1356L224 1356L224 762L900 762L900 678L224 678L224 84L1020 84L1020 0L140 0M324 1620L524 1860L616 1860L816 1620L716 1620L570 1790L424 1620L324 1620M580-390Q559-390 542-380.50Q525-371 515.50-354Q506-337 506-317Q506-296 515.50-279Q525-262 542-252.50Q559-243 580-243Q600-243 617-252.50Q634-262 644-279Q654-296 654-317Q654-337 644-354Q634-371 617-380.50Q600-390 580-390Z"  horiz-adv-x="1120" vert-adv-y="2000"  />

      
      <glyph glyph-name="uni1EC0" unicode="&#x1EC0;" d="M822 2100L726 2100L822 1830L888 1830L822 2100M370 1620L570 1860L662 1860L862 1620L762 1620L616 1790L470 1620L370 1620M140 0L140 1440L1020 1440L1020 1356L224 1356L224 762L900 762L900 678L224 678L224 84L1020 84L1020 0L140 0Z"  horiz-adv-x="1120" vert-adv-y="2000"  />

      
      <glyph glyph-name="uni1EC2" unicode="&#x1EC2;" d="M813 1860Q844 1897 887.50 1914.50Q931 1932 975.50 1921.50Q1020 1911 1053 1868Q1085 1826 1083.50 1774.50Q1082 1723 1052 1678Q1022 1633 973 1606L921 1654Q962 1676 985 1705.50Q1008 1735 1010.50 1765Q1013 1795 997 1820Q973 1858 930.50 1853Q888 1848 851 1811L813 1860M341 1620L541 1860L633 1860L833 1620L733 1620L587 1790L441 1620L341 1620M140 0L140 1440L1020 1440L1020 1356L224 1356L224 762L900 762L900 678L224 678L224 84L1020 84L1020 0L140 0Z"  horiz-adv-x="1200" vert-adv-y="2000"  />

      
      <glyph glyph-name="uni1EC4" unicode="&#x1EC4;" d="M719 1910Q682 1910 645.50 1923.50Q609 1937 560 1963Q516 1985 489 1995.50Q462 2006 437 2006Q410 2006 395 1992.50Q380 1979 378 1959Q376 1939 383 1920L311 1920Q299 1965 312.50 2003Q326 2041 360 2063.50Q394 2086 439 2086Q477 2086 513.50 2072.50Q550 2059 601 2033Q645 2011 671.50 2000.50Q698 1990 723 1990Q759 1990 774 2017Q789 2044 777 2080L849 2080Q861 2036 847.50 1996.50Q834 1957 800 1933.50Q766 1910 719 1910M329 1620L529 1860L621 1860L821 1620L721 1620L575 1790L429 1620L329 1620M140 0L140 1440L1020 1440L1020 1356L224 1356L224 762L900 762L900 678L224 678L224 84L1020 84L1020 0L140 0Z"  horiz-adv-x="1120" vert-adv-y="2000"  />

      
      <glyph glyph-name="unicb" unicode="&#xcb;" d="M140 0L140 1440L1020 1440L1020 1356L224 1356L224 762L900 762L900 678L224 678L224 84L1020 84L1020 0L140 0M370 1667Q349 1667 332 1676.50Q315 1686 305.50 1703Q296 1720 296 1740Q296 1761 305.50 1778Q315 1795 332 1804.50Q349 1814 370 1814Q390 1814 407 1804.50Q424 1795 434 1778Q444 1761 444 1740Q444 1720 434 1703Q424 1686 407 1676.50Q390 1667 370 1667M730 1667Q709 1667 692 1676.50Q675 1686 665.50 1703Q656 1720 656 1740Q656 1761 665.50 1778Q675 1795 692 1804.50Q709 1814 730 1814Q750 1814 767 1804.50Q784 1795 794 1778Q804 1761 804 1740Q804 1720 794 1703Q784 1686 767 1676.50Q750 1667 730 1667Z"  horiz-adv-x="1120" vert-adv-y="2000"  />

      
      <glyph glyph-name="uni0116" unicode="&#x0116;" d="M140 0L140 1440L1020 1440L1020 1356L224 1356L224 762L900 762L900 678L224 678L224 84L1020 84L1020 0L140 0M590 1667Q569 1667 552 1676.50Q535 1686 525.50 1703Q516 1720 516 1740Q516 1761 525.50 1778Q535 1795 552 1804.50Q569 1814 590 1814Q610 1814 627 1804.50Q644 1795 654 1778Q664 1761 664 1740Q664 1720 654 1703Q644 1686 627 1676.50Q610 1667 590 1667Z"  horiz-adv-x="1120" vert-adv-y="2000"  />

      
      <glyph glyph-name="uni1EB8" unicode="&#x1EB8;" d="M580-390Q559-390 542-380.50Q525-371 515.50-354Q506-337 506-317Q506-296 515.50-279Q525-262 542-252.50Q559-243 580-243Q600-243 617-252.50Q634-262 644-279Q654-296 654-317Q654-337 644-354Q634-371 617-380.50Q600-390 580-390M140 0L140 1440L1020 1440L1020 1356L224 1356L224 762L900 762L900 678L224 678L224 84L1020 84L1020 0L140 0Z"  horiz-adv-x="1200" vert-adv-y="2000"  />

      
      <glyph glyph-name="unic8" unicode="&#xc8;" d="M574 1890L478 1890L574 1620L640 1620L574 1890M140 0L140 1440L1020 1440L1020 1356L224 1356L224 762L900 762L900 678L224 678L224 84L1020 84L1020 0L140 0Z"  horiz-adv-x="1120" vert-adv-y="2000"  />

      
      <glyph glyph-name="uni1EBA" unicode="&#x1EBA;" d="M445 1860Q476 1897 519.50 1914.50Q563 1932 607.50 1921.50Q652 1911 685 1868Q717 1826 715.50 1774.50Q714 1723 684 1678Q654 1633 605 1606L553 1654Q594 1676 617 1705.50Q640 1735 642.50 1765Q645 1795 629 1820Q605 1858 562.50 1853Q520 1848 483 1811L445 1860M140 0L140 1440L1020 1440L1020 1356L224 1356L224 762L900 762L900 678L224 678L224 84L1020 84L1020 0L140 0Z"  horiz-adv-x="1120" vert-adv-y="2000"  />

      
      <glyph glyph-name="uni0112" unicode="&#x0112;" d="M340 1680L340 1764L820 1764L820 1680L340 1680M140 0L140 1440L1020 1440L1020 1356L224 1356L224 762L900 762L900 678L224 678L224 84L1020 84L1020 0L140 0Z"  horiz-adv-x="1120" vert-adv-y="2000"  />

      
      <glyph glyph-name="uni0118" unicode="&#x0118;" d="M878-484Q832-484 791.50-459Q751-434 726.50-392.50Q702-351 702-304Q702-246 736-181.50Q770-117 827.50-54Q885 9 958 66L1020 0Q958-41 905.50-93.50Q853-146 821.50-201.50Q790-257 790-304Q790-348 816-376Q842-404 878-404Q904-404 931.50-388.50Q959-373 982-346L1032-402Q1000-443 960-463.50Q920-484 878-484M140 0L140 1440L1020 1440L1020 1356L224 1356L224 762L900 762L900 678L224 678L224 84L1020 84L1020 0L140 0Z"  horiz-adv-x="1120" vert-adv-y="2000"  />

      
      <glyph glyph-name="uni1EBC" unicode="&#x1EBC;" d="M719 1620Q682 1620 645.50 1633.50Q609 1647 560 1673Q517 1695 489.50 1705.50Q462 1716 437 1716Q410 1716 395 1702.50Q380 1689 378 1669Q376 1649 383 1630L311 1630Q299 1675 312.50 1713Q326 1751 360 1773.50Q394 1796 439 1796Q477 1796 513.50 1782.50Q550 1769 601 1743Q645 1721 671.50 1710.50Q698 1700 723 1700Q759 1700 774 1727Q789 1754 777 1790L849 1790Q861 1746 847.50 1706.50Q834 1667 800 1643.50Q766 1620 719 1620M140 0L140 1440L1020 1440L1020 1356L224 1356L224 762L900 762L900 678L224 678L224 84L1020 84L1020 0L140 0Z"  horiz-adv-x="1120" vert-adv-y="2000"  />

      
      <glyph glyph-name="uni46" unicode="&#x46;" d="M140 0L140 1440L940 1440L940 1356L224 1356L224 762L820 762L820 678L224 678L224 0L140 0Z"  horiz-adv-x="980" vert-adv-y="2000"  />

      
      <glyph glyph-name="uni47" unicode="&#x47;" d="M706-30Q496-30 351 64.50Q206 159 133 328Q60 497 60 720Q60 943 133 1111.50Q206 1280 351 1374Q496 1468 706 1468Q905 1468 1044 1374.50Q1183 1281 1244 1122L1162 1088Q1108 1226 990 1305Q872 1384 706 1384Q526 1384 401.50 1300.50Q277 1217 214.50 1067.50Q152 918 150 720Q148 523 211 372.50Q274 222 399.50 138Q525 54 706 54Q972 54 1098 208.50Q1224 363 1224 636L700 636L700 720L1310 720Q1313 695 1313.50 672.50Q1314 650 1314 634Q1314 440 1249 290.50Q1184 141 1048 55.50Q912-30 706-30Z"  horiz-adv-x="1374" vert-adv-y="2000"  />

      
      <glyph glyph-name="uni011E" unicode="&#x011E;" d="M711 1572Q649 1572 596.50 1602.50Q544 1633 513.50 1685.50Q483 1738 483 1800L561 1800Q561 1760 581.50 1725.50Q602 1691 636.50 1670.50Q671 1650 711 1650Q752 1650 786.50 1670.50Q821 1691 841 1725.50Q861 1760 861 1800L939 1800Q939 1738 908.50 1685.50Q878 1633 825.50 1602.50Q773 1572 711 1572M706-30Q496-30 351 64.50Q206 159 133 328Q60 497 60 720Q60 943 133 1111.50Q206 1280 351 1374Q496 1468 706 1468Q905 1468 1044 1374.50Q1183 1281 1244 1122L1162 1088Q1108 1226 990 1305Q872 1384 706 1384Q526 1384 401.50 1300.50Q277 1217 214.50 1067.50Q152 918 150 720Q148 523 211 372.50Q274 222 399.50 138Q525 54 706 54Q972 54 1098 208.50Q1224 363 1224 636L700 636L700 720L1310 720Q1313 695 1313.50 672.50Q1314 650 1314 634Q1314 440 1249 290.50Q1184 141 1048 55.50Q912-30 706-30Z"  horiz-adv-x="1374" vert-adv-y="2000"  />

      
      <glyph glyph-name="uni011C" unicode="&#x011C;" d="M441 1620L641 1860L733 1860L933 1620L833 1620L687 1790L541 1620L441 1620M706-30Q496-30 351 64.50Q206 159 133 328Q60 497 60 720Q60 943 133 1111.50Q206 1280 351 1374Q496 1468 706 1468Q905 1468 1044 1374.50Q1183 1281 1244 1122L1162 1088Q1108 1226 990 1305Q872 1384 706 1384Q526 1384 401.50 1300.50Q277 1217 214.50 1067.50Q152 918 150 720Q148 523 211 372.50Q274 222 399.50 138Q525 54 706 54Q972 54 1098 208.50Q1224 363 1224 636L700 636L700 720L1310 720Q1313 695 1313.50 672.50Q1314 650 1314 634Q1314 440 1249 290.50Q1184 141 1048 55.50Q912-30 706-30Z"  horiz-adv-x="1374" vert-adv-y="2000"  />

      
      <glyph glyph-name="uni0122" unicode="&#x0122;" d="M694-240L628-510L694-510L790-240L694-240M706-30Q496-30 351 64.50Q206 159 133 328Q60 497 60 720Q60 943 133 1111.50Q206 1280 351 1374Q496 1468 706 1468Q905 1468 1044 1374.50Q1183 1281 1244 1122L1162 1088Q1108 1226 990 1305Q872 1384 706 1384Q526 1384 401.50 1300.50Q277 1217 214.50 1067.50Q152 918 150 720Q148 523 211 372.50Q274 222 399.50 138Q525 54 706 54Q972 54 1098 208.50Q1224 363 1224 636L700 636L700 720L1310 720Q1313 695 1313.50 672.50Q1314 650 1314 634Q1314 440 1249 290.50Q1184 141 1048 55.50Q912-30 706-30Z"  horiz-adv-x="1374" vert-adv-y="2000"  />

      
      <glyph glyph-name="uni0120" unicode="&#x0120;" d="M706-30Q496-30 351 64.50Q206 159 133 328Q60 497 60 720Q60 943 133 1111.50Q206 1280 351 1374Q496 1468 706 1468Q905 1468 1044 1374.50Q1183 1281 1244 1122L1162 1088Q1108 1226 990 1305Q872 1384 706 1384Q526 1384 401.50 1300.50Q277 1217 214.50 1067.50Q152 918 150 720Q148 523 211 372.50Q274 222 399.50 138Q525 54 706 54Q972 54 1098 208.50Q1224 363 1224 636L700 636L700 720L1310 720Q1313 695 1313.50 672.50Q1314 650 1314 634Q1314 440 1249 290.50Q1184 141 1048 55.50Q912-30 706-30M726 1667Q705 1667 688 1676.50Q671 1686 661.50 1703Q652 1720 652 1740Q652 1761 661.50 1778Q671 1795 688 1804.50Q705 1814 726 1814Q746 1814 763 1804.50Q780 1795 790 1778Q800 1761 800 1740Q800 1720 790 1703Q780 1686 763 1676.50Q746 1667 726 1667Z"  horiz-adv-x="1374" vert-adv-y="2000"  />

      
      <glyph glyph-name="uni48" unicode="&#x48;" d="M140 0L140 1440L224 1440L224 762L1096 762L1096 1440L1180 1440L1180 0L1096 0L1096 678L224 678L224 0L140 0Z"  horiz-adv-x="1320" vert-adv-y="2000"  />

      
      <glyph glyph-name="uni0126" unicode="&#x0126;" d="M160 0L160 1440L244 1440L244 762L1116 762L1116 1440L1200 1440L1200 0L1116 0L1116 678L244 678L244 0L160 0M20 996L20 1080L1340 1080L1340 996L20 996Z"  horiz-adv-x="1360" vert-adv-y="2000"  />

      
      <glyph glyph-name="uni0124" unicode="&#x0124;" d="M414 1620L614 1860L706 1860L906 1620L806 1620L660 1790L514 1620L414 1620M140 0L140 1440L224 1440L224 762L1096 762L1096 1440L1180 1440L1180 0L1096 0L1096 678L224 678L224 0L140 0Z"  horiz-adv-x="1320" vert-adv-y="2000"  />

      
      <glyph glyph-name="uni49" unicode="&#x49;" d="M160 0L160 1440L244 1440L244 0L160 0Z"  horiz-adv-x="404" vert-adv-y="2000"  />

      
      <glyph glyph-name="unicd" unicode="&#xcd;" d="M248 1890L182 1620L248 1620L344 1890L248 1890M160 0L160 1440L244 1440L244 0L160 0Z"  horiz-adv-x="404" vert-adv-y="2000"  />

      
      <glyph glyph-name="unice" unicode="&#xce;" d="M-44 1620L156 1860L248 1860L448 1620L348 1620L202 1790L56 1620L-44 1620M160 0L160 1440L244 1440L244 0L160 0Z"  horiz-adv-x="404" vert-adv-y="2000"  />

      
      <glyph glyph-name="unicf" unicode="&#xcf;" d="M160 0L160 1440L244 1440L244 0L160 0M22 1667Q1 1667-16 1676.50Q-33 1686-42.50 1703Q-52 1720-52 1740Q-52 1761-42.50 1778Q-33 1795-16 1804.50Q1 1814 22 1814Q42 1814 59 1804.50Q76 1795 86 1778Q96 1761 96 1740Q96 1720 86 1703Q76 1686 59 1676.50Q42 1667 22 1667M382 1667Q361 1667 344 1676.50Q327 1686 317.50 1703Q308 1720 308 1740Q308 1761 317.50 1778Q327 1795 344 1804.50Q361 1814 382 1814Q402 1814 419 1804.50Q436 1795 446 1778Q456 1761 456 1740Q456 1720 446 1703Q436 1686 419 1676.50Q402 1667 382 1667Z"  horiz-adv-x="404" vert-adv-y="2000"  />

      
      <glyph glyph-name="uni0130" unicode="&#x0130;" d="M160 0L160 1440L244 1440L244 0L160 0M202 1667Q181 1667 164 1676.50Q147 1686 137.50 1703Q128 1720 128 1740Q128 1761 137.50 1778Q147 1795 164 1804.50Q181 1814 202 1814Q222 1814 239 1804.50Q256 1795 266 1778Q276 1761 276 1740Q276 1720 266 1703Q256 1686 239 1676.50Q222 1667 202 1667Z"  horiz-adv-x="404" vert-adv-y="2000"  />

      
      <glyph glyph-name="uni1ECA" unicode="&#x1ECA;" d="M160 0L160 1440L244 1440L244 0L160 0M202-390Q181-390 164-380.50Q147-371 137.50-354Q128-337 128-317Q128-296 137.50-279Q147-262 164-252.50Q181-243 202-243Q222-243 239-252.50Q256-262 266-279Q276-296 276-317Q276-337 266-354Q256-371 239-380.50Q222-390 202-390Z"  horiz-adv-x="404" vert-adv-y="2000"  />

      
      <glyph glyph-name="unicc" unicode="&#xcc;" d="M156 1890L60 1890L156 1620L222 1620L156 1890M160 0L160 1440L244 1440L244 0L160 0Z"  horiz-adv-x="404" vert-adv-y="2000"  />

      
      <glyph glyph-name="uni1EC8" unicode="&#x1EC8;" d="M58 1860Q89 1897 132.50 1914.50Q176 1932 220.50 1921.50Q265 1911 298 1868Q330 1826 328.50 1774.50Q327 1723 297 1678Q267 1633 218 1606L166 1654Q207 1676 230 1705.50Q253 1735 255.50 1765Q258 1795 242 1820Q218 1858 175.50 1853Q133 1848 96 1811L58 1860M160 0L160 1440L244 1440L244 0L160 0Z"  horiz-adv-x="404" vert-adv-y="2000"  />

      
      <glyph glyph-name="uni012A" unicode="&#x012A;" d="M-38 1680L-38 1764L442 1764L442 1680L-38 1680M160 0L160 1440L244 1440L244 0L160 0Z"  horiz-adv-x="404" vert-adv-y="2000"  />

      
      <glyph glyph-name="uni012E" unicode="&#x012E;" d="M102-484Q56-484 15.50-459Q-25-434-49.50-392.50Q-74-351-74-304Q-74-246-40-181.50Q-6-117 51.50-54Q109 9 182 66L244 0Q182-41 129.50-93.50Q77-146 45.50-201.50Q14-257 14-304Q14-348 40-376Q66-404 102-404Q128-404 155.50-388.50Q183-373 206-346L256-402Q224-443 184-463.50Q144-484 102-484M160 0L160 1440L244 1440L244 0L160 0Z"  horiz-adv-x="404" vert-adv-y="2000"  />

      
      <glyph glyph-name="uni0128" unicode="&#x0128;" d="M341 1620Q304 1620 267.50 1633.50Q231 1647 182 1673Q138 1695 111 1705.50Q84 1716 59 1716Q32 1716 17 1702.50Q2 1689 0 1669Q-2 1649 5 1630L-67 1630Q-79 1675-65.50 1713Q-52 1751-18 1773.50Q16 1796 61 1796Q99 1796 135.50 1782.50Q172 1769 223 1743Q267 1721 293.50 1710.50Q320 1700 345 1700Q381 1700 396 1727Q411 1754 399 1790L471 1790Q483 1746 469.50 1706.50Q456 1667 422 1643.50Q388 1620 341 1620M160 0L160 1440L244 1440L244 0L160 0Z"  horiz-adv-x="404" vert-adv-y="2000"  />

      
      <glyph glyph-name="uni4a" unicode="&#x4a;" d="M358-28Q272-28 197.50 6.50Q123 41 71.50 104Q20 167 0 250L86 270Q101 209 140 160Q179 111 236.50 83.50Q294 56 362 56Q433 56 496 88Q559 120 596 186Q620 231 626 280Q632 329 632 424L632 1440L716 1440L716 424L716 401Q716 337 714 298.50Q712 260 702 220.50Q692 181 670 142Q623 59 541 15.50Q459-28 358-28Z"  horiz-adv-x="878" vert-adv-y="2000"  />

      
      <glyph glyph-name="uni0134" unicode="&#x0134;" d="M428 1620L628 1860L720 1860L920 1620L820 1620L674 1790L528 1620L428 1620M358-28Q272-28 197.50 6.50Q123 41 71.50 104Q20 167 0 250L86 270Q101 209 140 160Q179 111 236.50 83.50Q294 56 362 56Q433 56 496 88Q559 120 596 186Q620 231 626 280Q632 329 632 424L632 1440L716 1440L716 424L716 401Q716 337 714 298.50Q712 260 702 220.50Q692 181 670 142Q623 59 541 15.50Q459-28 358-28Z"  horiz-adv-x="878" vert-adv-y="2000"  />

      
      <glyph glyph-name="uni4b" unicode="&#x4b;" d="M937 1440L1052 1440L180 518L180 639L937 1440M1001 0L386 782L460 828L1116 0L1001 0M140 0L140 1440L224 1440L224 0L140 0Z"  horiz-adv-x="1116" vert-adv-y="2000"  />

      
      <glyph glyph-name="uni0136" unicode="&#x0136;" d="M570-240L504-510L570-510L666-240L570-240M937 1440L1052 1440L180 518L180 639L937 1440M1001 0L386 782L460 828L1116 0L1001 0M140 0L140 1440L224 1440L224 0L140 0Z"  horiz-adv-x="1116" vert-adv-y="2000"  />

      
      <glyph glyph-name="uni4c" unicode="&#x4c;" d="M160 0L160 1440L244 1440L244 84L960 84L960 0L160 0Z"  horiz-adv-x="990" vert-adv-y="2000"  />

      
      <glyph glyph-name="uni0139" unicode="&#x0139;" d="M248 1890L182 1620L248 1620L344 1890L248 1890M160 0L160 1440L244 1440L244 84L960 84L960 0L160 0Z"  horiz-adv-x="990" vert-adv-y="2000"  />

      
      <glyph glyph-name="uni013D" unicode="&#x013D;" d="M160 0L160 1440L244 1440L244 84L960 84L960 0L160 0M694 1460L787 1460L664 1040L598 1040L694 1460Z"  horiz-adv-x="990" vert-adv-y="2000"  />

      
      <glyph glyph-name="uni013B" unicode="&#x013B;" d="M546-240L480-510L546-510L642-240L546-240M160 0L160 1440L244 1440L244 84L960 84L960 0L160 0Z"  horiz-adv-x="990" vert-adv-y="2000"  />

      
      <glyph glyph-name="uni0141" unicode="&#x0141;" d="M98 450L98 550L624 852L624 754L98 450M160 0L160 1440L244 1440L244 84L960 84L960 0L160 0Z"  horiz-adv-x="990" vert-adv-y="2000"  />

      
      <glyph glyph-name="uni4d" unicode="&#x4d;" d="M140 0L140 1440L220 1440L832 102L1438 1440L1522 1440L1522 2L1438 2L1438 1238L878 0L784 0L224 1238L224 0L140 0Z"  horiz-adv-x="1662" vert-adv-y="2000"  />

      
      <glyph glyph-name="uni4e" unicode="&#x4e;" d="M140 0L140 1440L224 1440L1100 150L1100 1440L1184 1440L1184 0L1100 0L224 1292L224 0L140 0Z"  horiz-adv-x="1324" vert-adv-y="2000"  />

      
      <glyph glyph-name="uni0143" unicode="&#x0143;" d="M728 1890L662 1620L728 1620L824 1890L728 1890M140 0L140 1440L224 1440L1100 150L1100 1440L1184 1440L1184 0L1100 0L224 1292L224 0L140 0Z"  horiz-adv-x="1324" vert-adv-y="2000"  />

      
      <glyph glyph-name="uni0147" unicode="&#x0147;" d="M140 0L140 1440L224 1440L1100 150L1100 1440L1184 1440L1184 0L1100 0L224 1292L224 0L140 0M444 1860L544 1860L690 1690L836 1860L936 1860L736 1620L644 1620L444 1860Z"  horiz-adv-x="1324" vert-adv-y="2000"  />

      
      <glyph glyph-name="uni0145" unicode="&#x0145;" d="M668-240L602-510L668-510L764-240L668-240M140 0L140 1440L224 1440L1100 150L1100 1440L1184 1440L1184 0L1100 0L224 1292L224 0L140 0Z"  horiz-adv-x="1324" vert-adv-y="2000"  />

      
      <glyph glyph-name="uni014A" unicode="&#x014A;" d="M1100 1440L1184 1440L1184-190Q1184-277 1147.50-317.50Q1111-358 1032-358Q993-358 950-348L950-266L970-269Q991-272 1008-272Q1045-272 1064.50-258Q1084-244 1092-209.50Q1100-175 1100-110Q1100-56 1089.50-12.50Q1079 31 1058 62L224 1292L224 0L140 0L140 1440L224 1440L1100 150L1100 1440Z"  horiz-adv-x="1324" vert-adv-y="2000"  />

      
      <glyph glyph-name="unid1" unicode="&#xd1;" d="M830 1620Q793 1620 756.50 1633.50Q720 1647 671 1673Q627 1695 600 1705.50Q573 1716 548 1716Q521 1716 506 1702.50Q491 1689 489 1669Q487 1649 494 1630L422 1630Q410 1675 423.50 1713Q437 1751 471 1773.50Q505 1796 550 1796Q588 1796 624.50 1782.50Q661 1769 712 1743Q756 1721 782.50 1710.50Q809 1700 834 1700Q870 1700 885 1727Q900 1754 888 1790L960 1790Q972 1746 958.50 1706.50Q945 1667 911 1643.50Q877 1620 830 1620M140 0L140 1440L224 1440L1100 150L1100 1440L1184 1440L1184 0L1100 0L224 1292L224 0L140 0Z"  horiz-adv-x="1324" vert-adv-y="2000"  />

      
      <glyph glyph-name="uni4f" unicode="&#x4f;" d="M706-30Q496-30 351 64.50Q206 159 133 328Q60 497 60 720Q60 943 133 1112Q206 1281 351 1375.50Q496 1470 706 1470Q916 1470 1061 1375.50Q1206 1281 1279 1112Q1352 943 1352 720Q1352 497 1279 328Q1206 159 1061 64.50Q916-30 706-30M706 54Q887 54 1011.50 138Q1136 222 1199 372Q1262 522 1262 720Q1262 918 1199 1068Q1136 1218 1011.50 1302Q887 1386 706 1386Q526 1386 401.50 1302Q277 1218 214.50 1068.50Q152 919 150 720Q148 523 211 372.50Q274 222 399.50 138Q525 54 706 54Z"  horiz-adv-x="1412" vert-adv-y="2000"  />

      
      <glyph glyph-name="unid3" unicode="&#xd3;" d="M772 1890L706 1620L772 1620L868 1890L772 1890M706-30Q496-30 351 64.50Q206 159 133 328Q60 497 60 720Q60 943 133 1112Q206 1281 351 1375.50Q496 1470 706 1470Q916 1470 1061 1375.50Q1206 1281 1279 1112Q1352 943 1352 720Q1352 497 1279 328Q1206 159 1061 64.50Q916-30 706-30M706 54Q887 54 1011.50 138Q1136 222 1199 372Q1262 522 1262 720Q1262 918 1199 1068Q1136 1218 1011.50 1302Q887 1386 706 1386Q526 1386 401.50 1302Q277 1218 214.50 1068.50Q152 919 150 720Q148 523 211 372.50Q274 222 399.50 138Q525 54 706 54Z"  horiz-adv-x="1412" vert-adv-y="2000"  />

      
      <glyph glyph-name="unid4" unicode="&#xd4;" d="M460 1620L660 1860L752 1860L952 1620L852 1620L706 1790L560 1620L460 1620M706-30Q496-30 351 64.50Q206 159 133 328Q60 497 60 720Q60 943 133 1112Q206 1281 351 1375.50Q496 1470 706 1470Q916 1470 1061 1375.50Q1206 1281 1279 1112Q1352 943 1352 720Q1352 497 1279 328Q1206 159 1061 64.50Q916-30 706-30M706 54Q887 54 1011.50 138Q1136 222 1199 372Q1262 522 1262 720Q1262 918 1199 1068Q1136 1218 1011.50 1302Q887 1386 706 1386Q526 1386 401.50 1302Q277 1218 214.50 1068.50Q152 919 150 720Q148 523 211 372.50Q274 222 399.50 138Q525 54 706 54Z"  horiz-adv-x="1412" vert-adv-y="2000"  />

      
      <glyph glyph-name="uni1ED0" unicode="&#x1ED0;" d="M1023 2100L957 1830L1023 1830L1119 2100L1023 2100M469 1620L669 1860L761 1860L961 1620L861 1620L715 1790L569 1620L469 1620M706-30Q496-30 351 64.50Q206 159 133 328Q60 497 60 720Q60 943 133 1112Q206 1281 351 1375.50Q496 1470 706 1470Q916 1470 1061 1375.50Q1206 1281 1279 1112Q1352 943 1352 720Q1352 497 1279 328Q1206 159 1061 64.50Q916-30 706-30M706 54Q887 54 1011.50 138Q1136 222 1199 372Q1262 522 1262 720Q1262 918 1199 1068Q1136 1218 1011.50 1302Q887 1386 706 1386Q526 1386 401.50 1302Q277 1218 214.50 1068.50Q152 919 150 720Q148 523 211 372.50Q274 222 399.50 138Q525 54 706 54Z"  horiz-adv-x="1412" vert-adv-y="2000"  />

      
      <glyph glyph-name="uni1ED8" unicode="&#x1ED8;" d="M460 1620L660 1860L752 1860L952 1620L852 1620L706 1790L560 1620L460 1620M706-30Q496-30 351 64.50Q206 159 133 328Q60 497 60 720Q60 943 133 1112Q206 1281 351 1375.50Q496 1470 706 1470Q916 1470 1061 1375.50Q1206 1281 1279 1112Q1352 943 1352 720Q1352 497 1279 328Q1206 159 1061 64.50Q916-30 706-30M706 54Q887 54 1011.50 138Q1136 222 1199 372Q1262 522 1262 720Q1262 918 1199 1068Q1136 1218 1011.50 1302Q887 1386 706 1386Q526 1386 401.50 1302Q277 1218 214.50 1068.50Q152 919 150 720Q148 523 211 372.50Q274 222 399.50 138Q525 54 706 54M706-390Q685-390 668-380.50Q651-371 641.50-354Q632-337 632-317Q632-296 641.50-279Q651-262 668-252.50Q685-243 706-243Q726-243 743-252.50Q760-262 770-279Q780-296 780-317Q780-337 770-354Q760-371 743-380.50Q726-390 706-390Z"  horiz-adv-x="1412" vert-adv-y="2000"  />

      
      <glyph glyph-name="uni1ED2" unicode="&#x1ED2;" d="M913 2100L817 2100L913 1830L979 1830L913 2100M461 1620L661 1860L753 1860L953 1620L853 1620L707 1790L561 1620L461 1620M706-30Q496-30 351 64.50Q206 159 133 328Q60 497 60 720Q60 943 133 1112Q206 1281 351 1375.50Q496 1470 706 1470Q916 1470 1061 1375.50Q1206 1281 1279 1112Q1352 943 1352 720Q1352 497 1279 328Q1206 159 1061 64.50Q916-30 706-30M706 54Q887 54 1011.50 138Q1136 222 1199 372Q1262 522 1262 720Q1262 918 1199 1068Q1136 1218 1011.50 1302Q887 1386 706 1386Q526 1386 401.50 1302Q277 1218 214.50 1068.50Q152 919 150 720Q148 523 211 372.50Q274 222 399.50 138Q525 54 706 54Z"  horiz-adv-x="1412" vert-adv-y="2000"  />

      
      <glyph glyph-name="uni1ED4" unicode="&#x1ED4;" d="M969 1860Q1000 1897 1043.50 1914.50Q1087 1932 1131.50 1921.50Q1176 1911 1209 1868Q1241 1826 1239.50 1774.50Q1238 1723 1208 1678Q1178 1633 1129 1606L1077 1654Q1118 1676 1141 1705.50Q1164 1735 1166.50 1765Q1169 1795 1153 1820Q1129 1858 1086.50 1853Q1044 1848 1007 1811L969 1860M497 1620L697 1860L789 1860L989 1620L889 1620L743 1790L597 1620L497 1620M706-30Q496-30 351 64.50Q206 159 133 328Q60 497 60 720Q60 943 133 1112Q206 1281 351 1375.50Q496 1470 706 1470Q916 1470 1061 1375.50Q1206 1281 1279 1112Q1352 943 1352 720Q1352 497 1279 328Q1206 159 1061 64.50Q916-30 706-30M706 54Q887 54 1011.50 138Q1136 222 1199 372Q1262 522 1262 720Q1262 918 1199 1068Q1136 1218 1011.50 1302Q887 1386 706 1386Q526 1386 401.50 1302Q277 1218 214.50 1068.50Q152 919 150 720Q148 523 211 372.50Q274 222 399.50 138Q525 54 706 54Z"  horiz-adv-x="1412" vert-adv-y="2000"  />

      
      <glyph glyph-name="uni1ED6" unicode="&#x1ED6;" d="M845 1910Q808 1910 771.50 1923.50Q735 1937 686 1963Q643 1985 615.50 1995.50Q588 2006 563 2006Q536 2006 521 1992.50Q506 1979 504 1959Q502 1939 509 1920L437 1920Q425 1965 438.50 2003Q452 2041 486 2063.50Q520 2086 565 2086Q603 2086 639.50 2072.50Q676 2059 727 2033Q771 2011 797.50 2000.50Q824 1990 849 1990Q885 1990 900 2017Q915 2044 903 2080L975 2080Q987 2036 973.50 1996.50Q960 1957 926 1933.50Q892 1910 845 1910M455 1620L655 1860L747 1860L947 1620L847 1620L701 1790L555 1620L455 1620M706-30Q496-30 351 64.50Q206 159 133 328Q60 497 60 720Q60 943 133 1112Q206 1281 351 1375.50Q496 1470 706 1470Q916 1470 1061 1375.50Q1206 1281 1279 1112Q1352 943 1352 720Q1352 497 1279 328Q1206 159 1061 64.50Q916-30 706-30M706 54Q887 54 1011.50 138Q1136 222 1199 372Q1262 522 1262 720Q1262 918 1199 1068Q1136 1218 1011.50 1302Q887 1386 706 1386Q526 1386 401.50 1302Q277 1218 214.50 1068.50Q152 919 150 720Q148 523 211 372.50Q274 222 399.50 138Q525 54 706 54Z"  horiz-adv-x="1412" vert-adv-y="2000"  />

      
      <glyph glyph-name="unid6" unicode="&#xd6;" d="M706-30Q496-30 351 64.50Q206 159 133 328Q60 497 60 720Q60 943 133 1112Q206 1281 351 1375.50Q496 1470 706 1470Q916 1470 1061 1375.50Q1206 1281 1279 1112Q1352 943 1352 720Q1352 497 1279 328Q1206 159 1061 64.50Q916-30 706-30M706 54Q887 54 1011.50 138Q1136 222 1199 372Q1262 522 1262 720Q1262 918 1199 1068Q1136 1218 1011.50 1302Q887 1386 706 1386Q526 1386 401.50 1302Q277 1218 214.50 1068.50Q152 919 150 720Q148 523 211 372.50Q274 222 399.50 138Q525 54 706 54M526 1667Q505 1667 488 1676.50Q471 1686 461.50 1703Q452 1720 452 1740Q452 1761 461.50 1778Q471 1795 488 1804.50Q505 1814 526 1814Q546 1814 563 1804.50Q580 1795 590 1778Q600 1761 600 1740Q600 1720 590 1703Q580 1686 563 1676.50Q546 1667 526 1667M886 1667Q865 1667 848 1676.50Q831 1686 821.50 1703Q812 1720 812 1740Q812 1761 821.50 1778Q831 1795 848 1804.50Q865 1814 886 1814Q906 1814 923 1804.50Q940 1795 950 1778Q960 1761 960 1740Q960 1720 950 1703Q940 1686 923 1676.50Q906 1667 886 1667Z"  horiz-adv-x="1412" vert-adv-y="2000"  />

      
      <glyph glyph-name="uni1ECC" unicode="&#x1ECC;" d="M706-30Q496-30 351 64.50Q206 159 133 328Q60 497 60 720Q60 943 133 1112Q206 1281 351 1375.50Q496 1470 706 1470Q916 1470 1061 1375.50Q1206 1281 1279 1112Q1352 943 1352 720Q1352 497 1279 328Q1206 159 1061 64.50Q916-30 706-30M706 54Q887 54 1011.50 138Q1136 222 1199 372Q1262 522 1262 720Q1262 918 1199 1068Q1136 1218 1011.50 1302Q887 1386 706 1386Q526 1386 401.50 1302Q277 1218 214.50 1068.50Q152 919 150 720Q148 523 211 372.50Q274 222 399.50 138Q525 54 706 54M682-390Q661-390 644-380.50Q627-371 617.50-354Q608-337 608-317Q608-296 617.50-279Q627-262 644-252.50Q661-243 682-243Q702-243 719-252.50Q736-262 746-279Q756-296 756-317Q756-337 746-354Q736-371 719-380.50Q702-390 682-390Z"  horiz-adv-x="1412" vert-adv-y="2000"  />

      
      <glyph glyph-name="unid2" unicode="&#xd2;" d="M670 1890L574 1890L670 1620L736 1620L670 1890M706-30Q496-30 351 64.50Q206 159 133 328Q60 497 60 720Q60 943 133 1112Q206 1281 351 1375.50Q496 1470 706 1470Q916 1470 1061 1375.50Q1206 1281 1279 1112Q1352 943 1352 720Q1352 497 1279 328Q1206 159 1061 64.50Q916-30 706-30M706 54Q887 54 1011.50 138Q1136 222 1199 372Q1262 522 1262 720Q1262 918 1199 1068Q1136 1218 1011.50 1302Q887 1386 706 1386Q526 1386 401.50 1302Q277 1218 214.50 1068.50Q152 919 150 720Q148 523 211 372.50Q274 222 399.50 138Q525 54 706 54Z"  horiz-adv-x="1412" vert-adv-y="2000"  />

      
      <glyph glyph-name="uni1ECE" unicode="&#x1ECE;" d="M595 1860Q626 1897 669.50 1914.50Q713 1932 757.50 1921.50Q802 1911 835 1868Q867 1826 865.50 1774.50Q864 1723 834 1678Q804 1633 755 1606L703 1654Q744 1676 767 1705.50Q790 1735 792.50 1765Q795 1795 779 1820Q755 1858 712.50 1853Q670 1848 633 1811L595 1860M706-30Q496-30 351 64.50Q206 159 133 328Q60 497 60 720Q60 943 133 1112Q206 1281 351 1375.50Q496 1470 706 1470Q916 1470 1061 1375.50Q1206 1281 1279 1112Q1352 943 1352 720Q1352 497 1279 328Q1206 159 1061 64.50Q916-30 706-30M706 54Q887 54 1011.50 138Q1136 222 1199 372Q1262 522 1262 720Q1262 918 1199 1068Q1136 1218 1011.50 1302Q887 1386 706 1386Q526 1386 401.50 1302Q277 1218 214.50 1068.50Q152 919 150 720Q148 523 211 372.50Q274 222 399.50 138Q525 54 706 54Z"  horiz-adv-x="1412" vert-adv-y="2000"  />

      
      <glyph glyph-name="uni01A0" unicode="&#x01A0;" d="M1201 1626Q1213 1553 1201 1496.50Q1189 1440 1140 1403Q1112 1382 1072 1370Q1032 1358 984.50 1363.50Q937 1369 892 1398L892 1448Q945 1432 980 1432.50Q1015 1433 1047 1449Q1081 1466 1097.50 1491.50Q1114 1517 1118 1547.50Q1122 1578 1118 1617L1117 1626L1201 1626M706-30Q496-30 351 64.50Q206 159 133 328Q60 497 60 720Q60 943 133 1112Q206 1281 351 1375.50Q496 1470 706 1470Q916 1470 1061 1375.50Q1206 1281 1279 1112Q1352 943 1352 720Q1352 497 1279 328Q1206 159 1061 64.50Q916-30 706-30M706 54Q887 54 1011.50 138Q1136 222 1199 372Q1262 522 1262 720Q1262 918 1199 1068Q1136 1218 1011.50 1302Q887 1386 706 1386Q526 1386 401.50 1302Q277 1218 214.50 1068.50Q152 919 150 720Q148 523 211 372.50Q274 222 399.50 138Q525 54 706 54Z"  horiz-adv-x="1412" vert-adv-y="2000"  />

      
      <glyph glyph-name="uni1EDA" unicode="&#x1EDA;" d="M1201 1626Q1213 1553 1201 1496.50Q1189 1440 1140 1403Q1112 1382 1072 1370Q1032 1358 984.50 1363.50Q937 1369 892 1398L892 1448Q945 1432 980 1432.50Q1015 1433 1047 1449Q1081 1466 1097.50 1491.50Q1114 1517 1118 1547.50Q1122 1578 1118 1617L1117 1626L1201 1626M706-30Q496-30 351 64.50Q206 159 133 328Q60 497 60 720Q60 943 133 1112Q206 1281 351 1375.50Q496 1470 706 1470Q916 1470 1061 1375.50Q1206 1281 1279 1112Q1352 943 1352 720Q1352 497 1279 328Q1206 159 1061 64.50Q916-30 706-30M706 54Q887 54 1011.50 138Q1136 222 1199 372Q1262 522 1262 720Q1262 918 1199 1068Q1136 1218 1011.50 1302Q887 1386 706 1386Q526 1386 401.50 1302Q277 1218 214.50 1068.50Q152 919 150 720Q148 523 211 372.50Q274 222 399.50 138Q525 54 706 54M772 1890L706 1620L772 1620L868 1890L772 1890Z"  horiz-adv-x="1412" vert-adv-y="2000"  />

      
      <glyph glyph-name="uni1EE2" unicode="&#x1EE2;" d="M1201 1626Q1213 1553 1201 1496.50Q1189 1440 1140 1403Q1112 1382 1072 1370Q1032 1358 984.50 1363.50Q937 1369 892 1398L892 1448Q945 1432 980 1432.50Q1015 1433 1047 1449Q1081 1466 1097.50 1491.50Q1114 1517 1118 1547.50Q1122 1578 1118 1617L1117 1626L1201 1626M706-30Q496-30 351 64.50Q206 159 133 328Q60 497 60 720Q60 943 133 1112Q206 1281 351 1375.50Q496 1470 706 1470Q916 1470 1061 1375.50Q1206 1281 1279 1112Q1352 943 1352 720Q1352 497 1279 328Q1206 159 1061 64.50Q916-30 706-30M706 54Q887 54 1011.50 138Q1136 222 1199 372Q1262 522 1262 720Q1262 918 1199 1068Q1136 1218 1011.50 1302Q887 1386 706 1386Q526 1386 401.50 1302Q277 1218 214.50 1068.50Q152 919 150 720Q148 523 211 372.50Q274 222 399.50 138Q525 54 706 54M706-390Q685-390 668-380.50Q651-371 641.50-354Q632-337 632-317Q632-296 641.50-279Q651-262 668-252.50Q685-243 706-243Q726-243 743-252.50Q760-262 770-279Q780-296 780-317Q780-337 770-354Q760-371 743-380.50Q726-390 706-390Z"  horiz-adv-x="1412" vert-adv-y="2000"  />

      
      <glyph glyph-name="uni1EDC" unicode="&#x1EDC;" d="M1201 1626Q1213 1553 1201 1496.50Q1189 1440 1140 1403Q1112 1382 1072 1370Q1032 1358 984.50 1363.50Q937 1369 892 1398L892 1448Q945 1432 980 1432.50Q1015 1433 1047 1449Q1081 1466 1097.50 1491.50Q1114 1517 1118 1547.50Q1122 1578 1118 1617L1117 1626L1201 1626M706-30Q496-30 351 64.50Q206 159 133 328Q60 497 60 720Q60 943 133 1112Q206 1281 351 1375.50Q496 1470 706 1470Q916 1470 1061 1375.50Q1206 1281 1279 1112Q1352 943 1352 720Q1352 497 1279 328Q1206 159 1061 64.50Q916-30 706-30M706 54Q887 54 1011.50 138Q1136 222 1199 372Q1262 522 1262 720Q1262 918 1199 1068Q1136 1218 1011.50 1302Q887 1386 706 1386Q526 1386 401.50 1302Q277 1218 214.50 1068.50Q152 919 150 720Q148 523 211 372.50Q274 222 399.50 138Q525 54 706 54M670 1890L574 1890L670 1620L736 1620L670 1890Z"  horiz-adv-x="1412" vert-adv-y="2000"  />

      
      <glyph glyph-name="uni1EDE" unicode="&#x1EDE;" d="M595 1860Q626 1897 669.50 1914.50Q713 1932 757.50 1921.50Q802 1911 835 1868Q867 1826 865.50 1774.50Q864 1723 834 1678Q804 1633 755 1606L703 1654Q744 1676 767 1705.50Q790 1735 792.50 1765Q795 1795 779 1820Q755 1858 712.50 1853Q670 1848 633 1811L595 1860M1201 1626Q1213 1553 1201 1496.50Q1189 1440 1140 1403Q1112 1382 1072 1370Q1032 1358 984.50 1363.50Q937 1369 892 1398L892 1448Q945 1432 980 1432.50Q1015 1433 1047 1449Q1081 1466 1097.50 1491.50Q1114 1517 1118 1547.50Q1122 1578 1118 1617L1117 1626L1201 1626M706-30Q496-30 351 64.50Q206 159 133 328Q60 497 60 720Q60 943 133 1112Q206 1281 351 1375.50Q496 1470 706 1470Q916 1470 1061 1375.50Q1206 1281 1279 1112Q1352 943 1352 720Q1352 497 1279 328Q1206 159 1061 64.50Q916-30 706-30M706 54Q887 54 1011.50 138Q1136 222 1199 372Q1262 522 1262 720Q1262 918 1199 1068Q1136 1218 1011.50 1302Q887 1386 706 1386Q526 1386 401.50 1302Q277 1218 214.50 1068.50Q152 919 150 720Q148 523 211 372.50Q274 222 399.50 138Q525 54 706 54Z"  horiz-adv-x="1412" vert-adv-y="2000"  />

      
      <glyph glyph-name="uni1EE0" unicode="&#x1EE0;" d="M1201 1626Q1213 1553 1201 1496.50Q1189 1440 1140 1403Q1112 1382 1072 1370Q1032 1358 984.50 1363.50Q937 1369 892 1398L892 1448Q945 1432 980 1432.50Q1015 1433 1047 1449Q1081 1466 1097.50 1491.50Q1114 1517 1118 1547.50Q1122 1578 1118 1617L1117 1626L1201 1626M706-30Q496-30 351 64.50Q206 159 133 328Q60 497 60 720Q60 943 133 1112Q206 1281 351 1375.50Q496 1470 706 1470Q916 1470 1061 1375.50Q1206 1281 1279 1112Q1352 943 1352 720Q1352 497 1279 328Q1206 159 1061 64.50Q916-30 706-30M706 54Q887 54 1011.50 138Q1136 222 1199 372Q1262 522 1262 720Q1262 918 1199 1068Q1136 1218 1011.50 1302Q887 1386 706 1386Q526 1386 401.50 1302Q277 1218 214.50 1068.50Q152 919 150 720Q148 523 211 372.50Q274 222 399.50 138Q525 54 706 54M845 1620Q808 1620 771.50 1633.50Q735 1647 686 1673Q642 1695 615 1705.50Q588 1716 563 1716Q536 1716 521 1702.50Q506 1689 504 1669Q502 1649 509 1630L437 1630Q425 1675 438.50 1713Q452 1751 486 1773.50Q520 1796 565 1796Q603 1796 639.50 1782.50Q676 1769 727 1743Q771 1721 797.50 1710.50Q824 1700 849 1700Q885 1700 900 1727Q915 1754 903 1790L975 1790Q987 1746 973.50 1706.50Q960 1667 926 1643.50Q892 1620 845 1620Z"  horiz-adv-x="1412" vert-adv-y="2000"  />

      
      <glyph glyph-name="uni0150" unicode="&#x0150;" d="M706-30Q496-30 351 64.50Q206 159 133 328Q60 497 60 720Q60 943 133 1112Q206 1281 351 1375.50Q496 1470 706 1470Q916 1470 1061 1375.50Q1206 1281 1279 1112Q1352 943 1352 720Q1352 497 1279 328Q1206 159 1061 64.50Q916-30 706-30M706 54Q887 54 1011.50 138Q1136 222 1199 372Q1262 522 1262 720Q1262 918 1199 1068Q1136 1218 1011.50 1302Q887 1386 706 1386Q526 1386 401.50 1302Q277 1218 214.50 1068.50Q152 919 150 720Q148 523 211 372.50Q274 222 399.50 138Q525 54 706 54M927 1890L861 1620L927 1620L1023 1890L927 1890M577 1890L511 1620L577 1620L673 1890L577 1890Z"  horiz-adv-x="1412" vert-adv-y="2000"  />

      
      <glyph glyph-name="uni014C" unicode="&#x014C;" d="M466 1680L466 1764L946 1764L946 1680L466 1680M706-30Q496-30 351 64.50Q206 159 133 328Q60 497 60 720Q60 943 133 1112Q206 1281 351 1375.50Q496 1470 706 1470Q916 1470 1061 1375.50Q1206 1281 1279 1112Q1352 943 1352 720Q1352 497 1279 328Q1206 159 1061 64.50Q916-30 706-30M706 54Q887 54 1011.50 138Q1136 222 1199 372Q1262 522 1262 720Q1262 918 1199 1068Q1136 1218 1011.50 1302Q887 1386 706 1386Q526 1386 401.50 1302Q277 1218 214.50 1068.50Q152 919 150 720Q148 523 211 372.50Q274 222 399.50 138Q525 54 706 54Z"  horiz-adv-x="1412" vert-adv-y="2000"  />

      
      <glyph glyph-name="unid8" unicode="&#xd8;" d="M72-26L10 32L210 246L232 270L1142 1242L1162 1262L1345 1459L1407 1404L1210 1190L1194 1174L286 202L260 174L72-26M706-30Q496-30 351 64.50Q206 159 133 328Q60 497 60 720Q60 943 133 1112Q206 1281 351 1375.50Q496 1470 706 1470Q916 1470 1061 1375.50Q1206 1281 1279 1112Q1352 943 1352 720Q1352 497 1279 328Q1206 159 1061 64.50Q916-30 706-30M706 54Q887 54 1011.50 138Q1136 222 1199 372Q1262 522 1262 720Q1262 918 1199 1068Q1136 1218 1011.50 1302Q887 1386 706 1386Q526 1386 401.50 1302Q277 1218 214.50 1068.50Q152 919 150 720Q148 523 211 372.50Q274 222 399.50 138Q525 54 706 54Z"  horiz-adv-x="1412" vert-adv-y="2000"  />

      
      <glyph glyph-name="unid5" unicode="&#xd5;" d="M706-30Q496-30 351 64.50Q206 159 133 328Q60 497 60 720Q60 943 133 1112Q206 1281 351 1375.50Q496 1470 706 1470Q916 1470 1061 1375.50Q1206 1281 1279 1112Q1352 943 1352 720Q1352 497 1279 328Q1206 159 1061 64.50Q916-30 706-30M706 54Q887 54 1011.50 138Q1136 222 1199 372Q1262 522 1262 720Q1262 918 1199 1068Q1136 1218 1011.50 1302Q887 1386 706 1386Q526 1386 401.50 1302Q277 1218 214.50 1068.50Q152 919 150 720Q148 523 211 372.50Q274 222 399.50 138Q525 54 706 54M861 1620Q824 1620 787.50 1633.50Q751 1647 702 1673Q659 1695 631.50 1705.50Q604 1716 579 1716Q552 1716 537 1702.50Q522 1689 520 1669Q518 1649 525 1630L453 1630Q441 1675 454.50 1713Q468 1751 502 1773.50Q536 1796 581 1796Q619 1796 655.50 1782.50Q692 1769 743 1743Q787 1721 813.50 1710.50Q840 1700 865 1700Q901 1700 916 1727Q931 1754 919 1790L991 1790Q1003 1746 989.50 1706.50Q976 1667 942 1643.50Q908 1620 861 1620Z"  horiz-adv-x="1412" vert-adv-y="2000"  />

      
      <glyph glyph-name="uni0152" unicode="&#x0152;" d="M706-30Q496-30 351 64.50Q206 159 133 328Q60 497 60 720Q60 943 133 1112Q206 1281 351 1375.50Q496 1470 706 1470Q916 1470 1061 1375.50Q1206 1281 1279 1112Q1352 943 1352 720Q1352 497 1279 328Q1206 159 1061 64.50Q916-30 706-30M706 54Q887 54 1011.50 138Q1136 222 1199 372Q1262 522 1262 720Q1262 918 1199 1068Q1136 1218 1011.50 1302Q887 1386 706 1386Q526 1386 401.50 1302Q277 1218 214.50 1068.50Q152 919 150 720Q148 523 211 372.50Q274 222 399.50 138Q525 54 706 54M1268 0L1268 1440L2148 1440L2148 1356L1352 1356L1352 762L2028 762L2028 678L1352 678L1352 84L2148 84L2148 0L1268 0Z"  horiz-adv-x="2248" vert-adv-y="2000"  />

      
      <glyph glyph-name="uni50" unicode="&#x50;" d="M140 0L140 1440L670 1440Q714 1440 762 1432Q864 1416 941 1356.50Q1018 1297 1060 1206.50Q1102 1116 1102 1008Q1102 900 1060 809.50Q1018 719 941 659.50Q864 600 762 584Q714 576 670 576L224 576L224 0L140 0M670 660Q715 660 758 668Q839 684 896 733Q953 782 982.50 854Q1012 926 1012 1008Q1012 1090 982.50 1162Q953 1234 896 1283Q839 1332 758 1348Q715 1356 670 1356L224 1356L224 660L670 660Z"  horiz-adv-x="1162" vert-adv-y="2000"  />

      
      <glyph glyph-name="unide" unicode="&#xde;" d="M140 0L140 1440L224 1440L224 1152L650 1152Q729 1152 804 1122Q843 1107 879.50 1084Q916 1061 946 1032Q1010 972 1046 889.50Q1082 807 1082 720Q1082 640 1052 565Q1022 490 968 430Q910 364 824.50 326Q739 288 650 288L224 288L224 0L140 0M650 372Q723 372 792.50 405.50Q862 439 910 496Q950 544 971.50 602Q993 660 992 720Q990 791 962.50 856Q935 921 886 970Q841 1015 777.50 1041.50Q714 1068 650 1068L224 1068L224 372L650 372Z"  horiz-adv-x="1142" vert-adv-y="2000"  />

      
      <glyph glyph-name="uni51" unicode="&#x51;" d="M1274-28L908 336L974 402L1338 38L1274-28M706-30Q496-30 351 64.50Q206 159 133 328Q60 497 60 720Q60 943 133 1112Q206 1281 351 1375.50Q496 1470 706 1470Q916 1470 1061 1375.50Q1206 1281 1279 1112Q1352 943 1352 720Q1352 497 1279 328Q1206 159 1061 64.50Q916-30 706-30M706 54Q887 54 1011.50 138Q1136 222 1199 372Q1262 522 1262 720Q1262 918 1199 1068Q1136 1218 1011.50 1302Q887 1386 706 1386Q526 1386 401.50 1302Q277 1218 214.50 1068.50Q152 919 150 720Q148 523 211 372.50Q274 222 399.50 138Q525 54 706 54Z"  horiz-adv-x="1412" vert-adv-y="2000"  />

      
      <glyph glyph-name="uni52" unicode="&#x52;" d="M1021 0L670 682L768 682L1121 0L1021 0M140 0L140 1440L670 1440Q714 1440 762 1432Q864 1416 941 1360Q1018 1304 1060 1220Q1102 1136 1102 1038Q1102 940 1060 856.50Q1018 773 941 717Q864 661 762 644Q714 636 670 636L224 636L224 0L140 0M670 720L679 720Q696 721 717.50 723Q739 725 758 728Q838 743 895.50 789Q953 835 982.50 900.50Q1012 966 1012 1038Q1012 1110 982.50 1175.50Q953 1241 895.50 1287Q838 1333 758 1348Q715 1356 670 1356L224 1356L224 720L670 720Z"  horiz-adv-x="1222" vert-adv-y="2000"  />

      
      <glyph glyph-name="uni0154" unicode="&#x0154;" d="M592 1890L526 1620L592 1620L688 1890L592 1890M1021 0L670 682L768 682L1121 0L1021 0M140 0L140 1440L670 1440Q714 1440 762 1432Q864 1416 941 1360Q1018 1304 1060 1220Q1102 1136 1102 1038Q1102 940 1060 856.50Q1018 773 941 717Q864 661 762 644Q714 636 670 636L224 636L224 0L140 0M670 720L679 720Q696 721 717.50 723Q739 725 758 728Q838 743 895.50 789Q953 835 982.50 900.50Q1012 966 1012 1038Q1012 1110 982.50 1175.50Q953 1241 895.50 1287Q838 1333 758 1348Q715 1356 670 1356L224 1356L224 720L670 720Z"  horiz-adv-x="1222" vert-adv-y="2000"  />

      
      <glyph glyph-name="uni0158" unicode="&#x0158;" d="M1021 0L670 682L768 682L1121 0L1021 0M140 0L140 1440L670 1440Q714 1440 762 1432Q864 1416 941 1360Q1018 1304 1060 1220Q1102 1136 1102 1038Q1102 940 1060 856.50Q1018 773 941 717Q864 661 762 644Q714 636 670 636L224 636L224 0L140 0M224 720L670 720L679 720Q696 721 717.50 723Q739 725 758 728Q838 743 895.50 789Q953 835 982.50 900.50Q1012 966 1012 1038Q1012 1110 982.50 1175.50Q953 1241 895.50 1287Q838 1333 758 1348Q715 1356 670 1356L224 1356L224 720M306 1860L406 1860L552 1690L698 1860L798 1860L598 1620L506 1620L306 1860Z"  horiz-adv-x="1222" vert-adv-y="2000"  />

      
      <glyph glyph-name="uni0156" unicode="&#x0156;" d="M576-240L510-510L576-510L672-240L576-240M1021 0L670 682L768 682L1121 0L1021 0M140 0L140 1440L670 1440Q714 1440 762 1432Q864 1416 941 1360Q1018 1304 1060 1220Q1102 1136 1102 1038Q1102 940 1060 856.50Q1018 773 941 717Q864 661 762 644Q714 636 670 636L224 636L224 0L140 0M670 720L679 720Q696 721 717.50 723Q739 725 758 728Q838 743 895.50 789Q953 835 982.50 900.50Q1012 966 1012 1038Q1012 1110 982.50 1175.50Q953 1241 895.50 1287Q838 1333 758 1348Q715 1356 670 1356L224 1356L224 720L670 720Z"  horiz-adv-x="1222" vert-adv-y="2000"  />

      
      <glyph glyph-name="uni53" unicode="&#x53;" d="M618-30Q473-30 356 17.50Q239 65 162.50 152.50Q86 240 60 358L144 374Q170 276 236 203.50Q302 131 400 92.50Q498 54 618 54Q743 54 837.50 94Q932 134 984 207Q1036 280 1036 376Q1036 465 994 521.50Q952 578 897 606Q842 634 774 654L414 762Q312 793 245.50 841Q179 889 147.50 952Q116 1015 116 1092Q116 1201 175.50 1287Q235 1373 342 1421.50Q449 1470 586 1470Q726 1470 839 1418Q952 1366 1023 1271Q1094 1176 1112 1050L1028 1034Q1014 1138 954 1218Q894 1298 798.50 1342Q703 1386 586 1386Q475 1386 388.50 1347.50Q302 1309 254 1242.50Q206 1176 206 1094Q206 1014 249 962Q292 910 352 882Q412 854 494 830L792 740Q871 717 939.50 682Q1008 647 1063 571.50Q1118 496 1118 376Q1118 253 1056.50 161.50Q995 70 882 20Q769-30 618-30Z"  horiz-adv-x="1178" vert-adv-y="2000"  />

      
      <glyph glyph-name="uni015A" unicode="&#x015A;" d="M640 1890L574 1620L640 1620L736 1890L640 1890M618-30Q473-30 356 17.50Q239 65 162.50 152.50Q86 240 60 358L144 374Q170 276 236 203.50Q302 131 400 92.50Q498 54 618 54Q743 54 837.50 94Q932 134 984 207Q1036 280 1036 376Q1036 465 994 521.50Q952 578 897 606Q842 634 774 654L414 762Q312 793 245.50 841Q179 889 147.50 952Q116 1015 116 1092Q116 1201 175.50 1287Q235 1373 342 1421.50Q449 1470 586 1470Q726 1470 839 1418Q952 1366 1023 1271Q1094 1176 1112 1050L1028 1034Q1014 1138 954 1218Q894 1298 798.50 1342Q703 1386 586 1386Q475 1386 388.50 1347.50Q302 1309 254 1242.50Q206 1176 206 1094Q206 1014 249 962Q292 910 352 882Q412 854 494 830L792 740Q871 717 939.50 682Q1008 647 1063 571.50Q1118 496 1118 376Q1118 253 1056.50 161.50Q995 70 882 20Q769-30 618-30Z"  horiz-adv-x="1178" vert-adv-y="2000"  />

      
      <glyph glyph-name="uni0160" unicode="&#x0160;" d="M618-30Q473-30 356 17.50Q239 65 162.50 152.50Q86 240 60 358L144 374Q170 276 236 203.50Q302 131 400 92.50Q498 54 618 54Q743 54 837.50 94Q932 134 984 207Q1036 280 1036 376Q1036 465 994 521.50Q952 578 897 606Q842 634 774 654L414 762Q312 793 245.50 841Q179 889 147.50 952Q116 1015 116 1092Q116 1201 175.50 1287Q235 1373 342 1421.50Q449 1470 586 1470Q726 1470 839 1418Q952 1366 1023 1271Q1094 1176 1112 1050L1028 1034Q1014 1138 954 1218Q894 1298 798.50 1342Q703 1386 586 1386Q475 1386 388.50 1347.50Q302 1309 254 1242.50Q206 1176 206 1094Q206 1014 249 962Q292 910 352 882Q412 854 494 830L792 740Q871 717 939.50 682Q1008 647 1063 571.50Q1118 496 1118 376Q1118 253 1056.50 161.50Q995 70 882 20Q769-30 618-30M370 1860L470 1860L616 1690L762 1860L862 1860L662 1620L570 1620L370 1860Z"  horiz-adv-x="1178" vert-adv-y="2000"  />

      
      <glyph glyph-name="uni015E" unicode="&#x015E;" d="M570-478Q513-478 450-450L478-376Q528-396 564-396Q607-396 632.50-368Q658-340 658-302Q658-271 641-251.50Q624-232 599.50-220.50Q575-209 531-194Q529-194 527.50-193.50Q526-193 524-192L600 14L684 14L626-142Q681-165 713.50-205Q746-245 746-306Q746-353 722-392.50Q698-432 657.50-455Q617-478 570-478M618-30Q473-30 356 17.50Q239 65 162.50 152.50Q86 240 60 358L144 374Q170 276 236 203.50Q302 131 400 92.50Q498 54 618 54Q743 54 837.50 94Q932 134 984 207Q1036 280 1036 376Q1036 465 994 521.50Q952 578 897 606Q842 634 774 654L414 762Q312 793 245.50 841Q179 889 147.50 952Q116 1015 116 1092Q116 1201 175.50 1287Q235 1373 342 1421.50Q449 1470 586 1470Q726 1470 839 1418Q952 1366 1023 1271Q1094 1176 1112 1050L1028 1034Q1014 1138 954 1218Q894 1298 798.50 1342Q703 1386 586 1386Q475 1386 388.50 1347.50Q302 1309 254 1242.50Q206 1176 206 1094Q206 1014 249 962Q292 910 352 882Q412 854 494 830L792 740Q871 717 939.50 682Q1008 647 1063 571.50Q1118 496 1118 376Q1118 253 1056.50 161.50Q995 70 882 20Q769-30 618-30Z"  horiz-adv-x="1178" vert-adv-y="2000"  />

      
      <glyph glyph-name="uni015C" unicode="&#x015C;" d="M358 1620L558 1860L650 1860L850 1620L750 1620L604 1790L458 1620L358 1620M618-30Q473-30 356 17.50Q239 65 162.50 152.50Q86 240 60 358L144 374Q170 276 236 203.50Q302 131 400 92.50Q498 54 618 54Q743 54 837.50 94Q932 134 984 207Q1036 280 1036 376Q1036 465 994 521.50Q952 578 897 606Q842 634 774 654L414 762Q312 793 245.50 841Q179 889 147.50 952Q116 1015 116 1092Q116 1201 175.50 1287Q235 1373 342 1421.50Q449 1470 586 1470Q726 1470 839 1418Q952 1366 1023 1271Q1094 1176 1112 1050L1028 1034Q1014 1138 954 1218Q894 1298 798.50 1342Q703 1386 586 1386Q475 1386 388.50 1347.50Q302 1309 254 1242.50Q206 1176 206 1094Q206 1014 249 962Q292 910 352 882Q412 854 494 830L792 740Q871 717 939.50 682Q1008 647 1063 571.50Q1118 496 1118 376Q1118 253 1056.50 161.50Q995 70 882 20Q769-30 618-30Z"  horiz-adv-x="1178" vert-adv-y="2000"  />

      
      <glyph glyph-name="uni0218" unicode="&#x0218;" d="M628-240L562-510L628-510L724-240L628-240M618-30Q473-30 356 17.50Q239 65 162.50 152.50Q86 240 60 358L144 374Q170 276 236 203.50Q302 131 400 92.50Q498 54 618 54Q743 54 837.50 94Q932 134 984 207Q1036 280 1036 376Q1036 465 994 521.50Q952 578 897 606Q842 634 774 654L414 762Q312 793 245.50 841Q179 889 147.50 952Q116 1015 116 1092Q116 1201 175.50 1287Q235 1373 342 1421.50Q449 1470 586 1470Q726 1470 839 1418Q952 1366 1023 1271Q1094 1176 1112 1050L1028 1034Q1014 1138 954 1218Q894 1298 798.50 1342Q703 1386 586 1386Q475 1386 388.50 1347.50Q302 1309 254 1242.50Q206 1176 206 1094Q206 1014 249 962Q292 910 352 882Q412 854 494 830L792 740Q871 717 939.50 682Q1008 647 1063 571.50Q1118 496 1118 376Q1118 253 1056.50 161.50Q995 70 882 20Q769-30 618-30Z"  horiz-adv-x="1178" vert-adv-y="2000"  />

      
      <glyph glyph-name="uni1E9E" unicode="&#x1E9E;" d="M784-30Q731-30 694.50-23Q658-16 606 0L606 84Q656 69 696.50 63.50Q737 58 788 58Q891 58 973 98Q1055 138 1102.50 214.50Q1150 291 1150 397Q1150 492 1102.50 564.50Q1055 637 960.50 680Q866 723 730 728L730 806L998 1279Q931 1324 854 1353Q777 1382 665 1382Q547 1382 460.50 1342.50Q374 1303 322.50 1235Q271 1167 253 1081Q240 1019 236 956Q232 893 232 812L232 0L140 0L140 894Q140 1022 160 1108Q205 1307 347 1388.50Q489 1470 678 1470Q765 1470 846.50 1446Q928 1422 993 1387.50Q1058 1353 1113 1313Q1114 1312 1115 1311.50Q1116 1311 1117 1310L839 809Q939 800 1030.50 751.50Q1122 703 1180.50 613Q1239 523 1239 398Q1239 264 1184 168Q1129 72 1026.50 21Q924-30 784-30Z"  horiz-adv-x="1359" vert-adv-y="2000"  />

      
      <glyph glyph-name="uni54" unicode="&#x54;" d="M548 0L548 1356L20 1356L20 1440L1160 1440L1160 1356L632 1356L632 0L548 0Z"  horiz-adv-x="1180" vert-adv-y="2000"  />

      
      <glyph glyph-name="uni0166" unicode="&#x0166;" d="M170 678L170 762L1010 762L1010 678L170 678M548 0L548 1356L20 1356L20 1440L1160 1440L1160 1356L632 1356L632 0L548 0Z"  horiz-adv-x="1180" vert-adv-y="2000"  />

      
      <glyph glyph-name="uni0164" unicode="&#x0164;" d="M548 0L548 1356L20 1356L20 1440L1160 1440L1160 1356L632 1356L632 0L548 0M344 1860L444 1860L590 1690L736 1860L836 1860L636 1620L544 1620L344 1860Z"  horiz-adv-x="1180" vert-adv-y="2000"  />

      
      <glyph glyph-name="uni0162" unicode="&#x0162;" d="M548 0L548 1356L20 1356L20 1440L1160 1440L1160 1356L632 1356L632 0L548 0M518-492Q461-492 398-464L426-390Q476-410 512-410Q555-410 580.50-382Q606-354 606-316Q606-285 589-265.50Q572-246 547.50-234.50Q523-223 479-208Q477-208 475.50-207.50Q474-207 472-206L548 0L632 0L574-156Q629-179 661.50-219Q694-259 694-320Q694-367 670-406.50Q646-446 605.50-469Q565-492 518-492Z"  horiz-adv-x="1180" vert-adv-y="2000"  />

      
      <glyph glyph-name="uni021A" unicode="&#x021A;" d="M576-240L510-510L576-510L672-240L576-240M548 0L548 1356L20 1356L20 1440L1160 1440L1160 1356L632 1356L632 0L548 0Z"  horiz-adv-x="1180" vert-adv-y="2000"  />

      
      <glyph glyph-name="uni55" unicode="&#x55;" d="M690-30Q531-30 406 37Q281 104 210.50 227Q140 350 140 510L140 1440L224 1440L224 538Q224 372 296.50 262Q369 152 476.50 101Q584 50 690 50Q796 50 903.50 101Q1011 152 1083.50 262Q1156 372 1156 538L1156 1440L1240 1440L1240 510Q1240 351 1169.50 228Q1099 105 974 37.50Q849-30 690-30Z"  horiz-adv-x="1380" vert-adv-y="2000"  />

      
      <glyph glyph-name="unida" unicode="&#xda;" d="M711 1890L645 1620L711 1620L807 1890L711 1890M690-30Q531-30 406 37Q281 104 210.50 227Q140 350 140 510L140 1440L224 1440L224 538Q224 372 296.50 262Q369 152 476.50 101Q584 50 690 50Q796 50 903.50 101Q1011 152 1083.50 262Q1156 372 1156 538L1156 1440L1240 1440L1240 510Q1240 351 1169.50 228Q1099 105 974 37.50Q849-30 690-30Z"  horiz-adv-x="1380" vert-adv-y="2000"  />

      
      <glyph glyph-name="uni016C" unicode="&#x016C;" d="M690 1572Q628 1572 575.50 1602.50Q523 1633 492.50 1685.50Q462 1738 462 1800L540 1800Q540 1760 560.50 1725.50Q581 1691 615.50 1670.50Q650 1650 690 1650Q731 1650 765.50 1670.50Q800 1691 820 1725.50Q840 1760 840 1800L918 1800Q918 1738 887.50 1685.50Q857 1633 804.50 1602.50Q752 1572 690 1572M690-30Q531-30 406 37Q281 104 210.50 227Q140 350 140 510L140 1440L224 1440L224 538Q224 372 296.50 262Q369 152 476.50 101Q584 50 690 50Q796 50 903.50 101Q1011 152 1083.50 262Q1156 372 1156 538L1156 1440L1240 1440L1240 510Q1240 351 1169.50 228Q1099 105 974 37.50Q849-30 690-30Z"  horiz-adv-x="1380" vert-adv-y="2000"  />

      
      <glyph glyph-name="unidb" unicode="&#xdb;" d="M444 1620L644 1860L736 1860L936 1620L836 1620L690 1790L544 1620L444 1620M690-30Q531-30 406 37Q281 104 210.50 227Q140 350 140 510L140 1440L224 1440L224 538Q224 372 296.50 262Q369 152 476.50 101Q584 50 690 50Q796 50 903.50 101Q1011 152 1083.50 262Q1156 372 1156 538L1156 1440L1240 1440L1240 510Q1240 351 1169.50 228Q1099 105 974 37.50Q849-30 690-30Z"  horiz-adv-x="1380" vert-adv-y="2000"  />

      
      <glyph glyph-name="unidc" unicode="&#xdc;" d="M690-30Q531-30 406 37Q281 104 210.50 227Q140 350 140 510L140 1440L224 1440L224 538Q224 372 296.50 262Q369 152 476.50 101Q584 50 690 50Q796 50 903.50 101Q1011 152 1083.50 262Q1156 372 1156 538L1156 1440L1240 1440L1240 510Q1240 351 1169.50 228Q1099 105 974 37.50Q849-30 690-30M510 1667Q489 1667 472 1676.50Q455 1686 445.50 1703Q436 1720 436 1740Q436 1761 445.50 1778Q455 1795 472 1804.50Q489 1814 510 1814Q530 1814 547 1804.50Q564 1795 574 1778Q584 1761 584 1740Q584 1720 574 1703Q564 1686 547 1676.50Q530 1667 510 1667M870 1667Q849 1667 832 1676.50Q815 1686 805.50 1703Q796 1720 796 1740Q796 1761 805.50 1778Q815 1795 832 1804.50Q849 1814 870 1814Q890 1814 907 1804.50Q924 1795 934 1778Q944 1761 944 1740Q944 1720 934 1703Q924 1686 907 1676.50Q890 1667 870 1667Z"  horiz-adv-x="1380" vert-adv-y="2000"  />

      
      <glyph glyph-name="uni1EE4" unicode="&#x1EE4;" d="M690-30Q531-30 406 37Q281 104 210.50 227Q140 350 140 510L140 1440L224 1440L224 538Q224 372 296.50 262Q369 152 476.50 101Q584 50 690 50Q796 50 903.50 101Q1011 152 1083.50 262Q1156 372 1156 538L1156 1440L1240 1440L1240 510Q1240 351 1169.50 228Q1099 105 974 37.50Q849-30 690-30M690-390Q669-390 652-380.50Q635-371 625.50-354Q616-337 616-317Q616-296 625.50-279Q635-262 652-252.50Q669-243 690-243Q710-243 727-252.50Q744-262 754-279Q764-296 764-317Q764-337 754-354Q744-371 727-380.50Q710-390 690-390Z"  horiz-adv-x="1380" vert-adv-y="2000"  />

      
      <glyph glyph-name="unid9" unicode="&#xd9;" d="M669 1890L573 1890L669 1620L735 1620L669 1890M690-30Q531-30 406 37Q281 104 210.50 227Q140 350 140 510L140 1440L224 1440L224 538Q224 372 296.50 262Q369 152 476.50 101Q584 50 690 50Q796 50 903.50 101Q1011 152 1083.50 262Q1156 372 1156 538L1156 1440L1240 1440L1240 510Q1240 351 1169.50 228Q1099 105 974 37.50Q849-30 690-30Z"  horiz-adv-x="1380" vert-adv-y="2000"  />

      
      <glyph glyph-name="uni1EE6" unicode="&#x1EE6;" d="M562 1860Q593 1897 636.50 1914.50Q680 1932 724.50 1921.50Q769 1911 802 1868Q834 1826 832.50 1774.50Q831 1723 801 1678Q771 1633 722 1606L670 1654Q711 1676 734 1705.50Q757 1735 759.50 1765Q762 1795 746 1820Q722 1858 679.50 1853Q637 1848 600 1811L562 1860M690-30Q531-30 406 37Q281 104 210.50 227Q140 350 140 510L140 1440L224 1440L224 538Q224 372 296.50 262Q369 152 476.50 101Q584 50 690 50Q796 50 903.50 101Q1011 152 1083.50 262Q1156 372 1156 538L1156 1440L1240 1440L1240 510Q1240 351 1169.50 228Q1099 105 974 37.50Q849-30 690-30Z"  horiz-adv-x="1380" vert-adv-y="2000"  />

      
      <glyph glyph-name="uni01AF" unicode="&#x01AF;" d="M1405 1620Q1417 1546 1405.50 1489.50Q1394 1433 1345 1396Q1310 1369 1265 1364.50Q1220 1360 1156 1370L1156 1440L1177 1440Q1195 1441 1215.50 1442Q1236 1443 1252 1447Q1291 1456 1307.50 1482Q1324 1508 1325.50 1541Q1327 1574 1321 1620L1405 1620M690-30Q531-30 406 37Q281 104 210.50 227Q140 350 140 510L140 1440L224 1440L224 538Q224 372 296.50 262Q369 152 476.50 101Q584 50 690 50Q796 50 903.50 101Q1011 152 1083.50 262Q1156 372 1156 538L1156 1440L1240 1440L1240 510Q1240 351 1169.50 228Q1099 105 974 37.50Q849-30 690-30Z"  horiz-adv-x="1380" vert-adv-y="2000"  />

      
      <glyph glyph-name="uni1EE8" unicode="&#x1EE8;" d="M1405 1620Q1417 1546 1405.50 1489.50Q1394 1433 1345 1396Q1310 1369 1265 1364.50Q1220 1360 1156 1370L1156 1440L1177 1440Q1195 1441 1215.50 1442Q1236 1443 1252 1447Q1291 1456 1307.50 1482Q1324 1508 1325.50 1541Q1327 1574 1321 1620L1405 1620M690-30Q531-30 406 37Q281 104 210.50 227Q140 350 140 510L140 1440L224 1440L224 538Q224 372 296.50 262Q369 152 476.50 101Q584 50 690 50Q796 50 903.50 101Q1011 152 1083.50 262Q1156 372 1156 538L1156 1440L1240 1440L1240 510Q1240 351 1169.50 228Q1099 105 974 37.50Q849-30 690-30M711 1890L645 1620L711 1620L807 1890L711 1890Z"  horiz-adv-x="1380" vert-adv-y="2000"  />

      
      <glyph glyph-name="uni1EF0" unicode="&#x1EF0;" d="M1405 1620Q1417 1546 1405.50 1489.50Q1394 1433 1345 1396Q1310 1369 1265 1364.50Q1220 1360 1156 1370L1156 1440L1177 1440Q1195 1441 1215.50 1442Q1236 1443 1252 1447Q1291 1456 1307.50 1482Q1324 1508 1325.50 1541Q1327 1574 1321 1620L1405 1620M690-30Q531-30 406 37Q281 104 210.50 227Q140 350 140 510L140 1440L224 1440L224 538Q224 372 296.50 262Q369 152 476.50 101Q584 50 690 50Q796 50 903.50 101Q1011 152 1083.50 262Q1156 372 1156 538L1156 1440L1240 1440L1240 510Q1240 351 1169.50 228Q1099 105 974 37.50Q849-30 690-30M706-390Q685-390 668-380.50Q651-371 641.50-354Q632-337 632-317Q632-296 641.50-279Q651-262 668-252.50Q685-243 706-243Q726-243 743-252.50Q760-262 770-279Q780-296 780-317Q780-337 770-354Q760-371 743-380.50Q726-390 706-390Z"  horiz-adv-x="1380" vert-adv-y="2000"  />

      
      <glyph glyph-name="uni1EEA" unicode="&#x1EEA;" d="M1405 1620Q1417 1546 1405.50 1489.50Q1394 1433 1345 1396Q1310 1369 1265 1364.50Q1220 1360 1156 1370L1156 1440L1177 1440Q1195 1441 1215.50 1442Q1236 1443 1252 1447Q1291 1456 1307.50 1482Q1324 1508 1325.50 1541Q1327 1574 1321 1620L1405 1620M690-30Q531-30 406 37Q281 104 210.50 227Q140 350 140 510L140 1440L224 1440L224 538Q224 372 296.50 262Q369 152 476.50 101Q584 50 690 50Q796 50 903.50 101Q1011 152 1083.50 262Q1156 372 1156 538L1156 1440L1240 1440L1240 510Q1240 351 1169.50 228Q1099 105 974 37.50Q849-30 690-30M669 1890L573 1890L669 1620L735 1620L669 1890Z"  horiz-adv-x="1380" vert-adv-y="2000"  />

      
      <glyph glyph-name="uni1EEC" unicode="&#x1EEC;" d="M562 1860Q593 1897 636.50 1914.50Q680 1932 724.50 1921.50Q769 1911 802 1868Q834 1826 832.50 1774.50Q831 1723 801 1678Q771 1633 722 1606L670 1654Q711 1676 734 1705.50Q757 1735 759.50 1765Q762 1795 746 1820Q722 1858 679.50 1853Q637 1848 600 1811L562 1860M1405 1620Q1417 1546 1405.50 1489.50Q1394 1433 1345 1396Q1310 1369 1265 1364.50Q1220 1360 1156 1370L1156 1440L1177 1440Q1195 1441 1215.50 1442Q1236 1443 1252 1447Q1291 1456 1307.50 1482Q1324 1508 1325.50 1541Q1327 1574 1321 1620L1405 1620M690-30Q531-30 406 37Q281 104 210.50 227Q140 350 140 510L140 1440L224 1440L224 538Q224 372 296.50 262Q369 152 476.50 101Q584 50 690 50Q796 50 903.50 101Q1011 152 1083.50 262Q1156 372 1156 538L1156 1440L1240 1440L1240 510Q1240 351 1169.50 228Q1099 105 974 37.50Q849-30 690-30Z"  horiz-adv-x="1380" vert-adv-y="2000"  />

      
      <glyph glyph-name="uni1EEE" unicode="&#x1EEE;" d="M1405 1620Q1417 1546 1405.50 1489.50Q1394 1433 1345 1396Q1310 1369 1265 1364.50Q1220 1360 1156 1370L1156 1440L1177 1440Q1195 1441 1215.50 1442Q1236 1443 1252 1447Q1291 1456 1307.50 1482Q1324 1508 1325.50 1541Q1327 1574 1321 1620L1405 1620M690-30Q531-30 406 37Q281 104 210.50 227Q140 350 140 510L140 1440L224 1440L224 538Q224 372 296.50 262Q369 152 476.50 101Q584 50 690 50Q796 50 903.50 101Q1011 152 1083.50 262Q1156 372 1156 538L1156 1440L1240 1440L1240 510Q1240 351 1169.50 228Q1099 105 974 37.50Q849-30 690-30M829 1620Q792 1620 755.50 1633.50Q719 1647 670 1673Q627 1695 599.50 1705.50Q572 1716 547 1716Q520 1716 505 1702.50Q490 1689 488 1669Q486 1649 493 1630L421 1630Q409 1675 422.50 1713Q436 1751 470 1773.50Q504 1796 549 1796Q587 1796 623.50 1782.50Q660 1769 711 1743Q755 1721 781.50 1710.50Q808 1700 833 1700Q869 1700 884 1727Q899 1754 887 1790L959 1790Q971 1746 957.50 1706.50Q944 1667 910 1643.50Q876 1620 829 1620Z"  horiz-adv-x="1380" vert-adv-y="2000"  />

      
      <glyph glyph-name="uni0170" unicode="&#x0170;" d="M690-30Q531-30 406 37Q281 104 210.50 227Q140 350 140 510L140 1440L224 1440L224 538Q224 372 296.50 262Q369 152 476.50 101Q584 50 690 50Q796 50 903.50 101Q1011 152 1083.50 262Q1156 372 1156 538L1156 1440L1240 1440L1240 510Q1240 351 1169.50 228Q1099 105 974 37.50Q849-30 690-30M896 1890L830 1620L896 1620L992 1890L896 1890M546 1890L480 1620L546 1620L642 1890L546 1890Z"  horiz-adv-x="1380" vert-adv-y="2000"  />

      
      <glyph glyph-name="uni016A" unicode="&#x016A;" d="M450 1680L450 1764L930 1764L930 1680L450 1680M690-30Q531-30 406 37Q281 104 210.50 227Q140 350 140 510L140 1440L224 1440L224 538Q224 372 296.50 262Q369 152 476.50 101Q584 50 690 50Q796 50 903.50 101Q1011 152 1083.50 262Q1156 372 1156 538L1156 1440L1240 1440L1240 510Q1240 351 1169.50 228Q1099 105 974 37.50Q849-30 690-30Z"  horiz-adv-x="1380" vert-adv-y="2000"  />

      
      <glyph glyph-name="uni0172" unicode="&#x0172;" d="M690-30Q531-30 406 37Q281 104 210.50 227Q140 350 140 510L140 1440L224 1440L224 538Q224 372 296.50 262Q369 152 476.50 101Q584 50 690 50Q796 50 903.50 101Q1011 152 1083.50 262Q1156 372 1156 538L1156 1440L1240 1440L1240 510Q1240 351 1169.50 228Q1099 105 974 37.50Q849-30 690-30M884-414Q838-414 797.50-389Q757-364 732.50-322.50Q708-281 708-234Q708-176 742-111.50Q776-47 833.50 16Q891 79 964 136L1026 70Q964 29 911.50-23.50Q859-76 827.50-131.50Q796-187 796-234Q796-278 822-306Q848-334 884-334Q910-334 937.50-318.50Q965-303 988-276L1038-332Q1006-373 966-393.50Q926-414 884-414Z"  horiz-adv-x="1380" vert-adv-y="2000"  />

      
      <glyph glyph-name="uni016E" unicode="&#x016E;" d="M690 1560Q638 1560 593.50 1586Q549 1612 522.50 1656.50Q496 1701 496 1754Q496 1806 522.50 1850.50Q549 1895 593.50 1921.50Q638 1948 690 1948Q743 1948 787.50 1921.50Q832 1895 858 1850.50Q884 1806 884 1754Q884 1701 858 1656.50Q832 1612 787.50 1586Q743 1560 690 1560M690 1644Q736 1644 768 1676.50Q800 1709 800 1754Q800 1800 768 1832Q736 1864 690 1864Q645 1864 612.50 1832Q580 1800 580 1754Q580 1709 612.50 1676.50Q645 1644 690 1644M690-30Q531-30 406 37Q281 104 210.50 227Q140 350 140 510L140 1440L224 1440L224 538Q224 372 296.50 262Q369 152 476.50 101Q584 50 690 50Q796 50 903.50 101Q1011 152 1083.50 262Q1156 372 1156 538L1156 1440L1240 1440L1240 510Q1240 351 1169.50 228Q1099 105 974 37.50Q849-30 690-30Z"  horiz-adv-x="1380" vert-adv-y="2000"  />

      
      <glyph glyph-name="uni0168" unicode="&#x0168;" d="M690-30Q531-30 406 37Q281 104 210.50 227Q140 350 140 510L140 1440L224 1440L224 538Q224 372 296.50 262Q369 152 476.50 101Q584 50 690 50Q796 50 903.50 101Q1011 152 1083.50 262Q1156 372 1156 538L1156 1440L1240 1440L1240 510Q1240 351 1169.50 228Q1099 105 974 37.50Q849-30 690-30M834 1620Q797 1620 760.50 1633.50Q724 1647 675 1673Q632 1695 604.50 1705.50Q577 1716 552 1716Q525 1716 510 1702.50Q495 1689 493 1669Q491 1649 498 1630L426 1630Q414 1675 427.50 1713Q441 1751 475 1773.50Q509 1796 554 1796Q592 1796 628.50 1782.50Q665 1769 716 1743Q760 1721 786.50 1710.50Q813 1700 838 1700Q874 1700 889 1727Q904 1754 892 1790L964 1790Q976 1746 962.50 1706.50Q949 1667 915 1643.50Q881 1620 834 1620Z"  horiz-adv-x="1380" vert-adv-y="2000"  />

      
      <glyph glyph-name="uni56" unicode="&#x56;" d="M534 0L10 1440L100 1440L578 122L1058 1440L1148 1440L624 0L534 0Z"  horiz-adv-x="1158" vert-adv-y="2000"  />

      
      <glyph glyph-name="uni57" unicode="&#x57;" d="M452 0L40 1440L126 1440L496 152L864 1440L952 1440L1322 152L1690 1440L1778 1440L1366 0L1278 0L908 1286L540 0L452 0Z"  horiz-adv-x="1818" vert-adv-y="2000"  />

      
      <glyph glyph-name="uni1E82" unicode="&#x1E82;" d="M960 1890L894 1620L960 1620L1056 1890L960 1890M452 0L40 1440L126 1440L496 152L864 1440L952 1440L1322 152L1690 1440L1778 1440L1366 0L1278 0L908 1286L540 0L452 0Z"  horiz-adv-x="1818" vert-adv-y="2000"  />

      
      <glyph glyph-name="uni0174" unicode="&#x0174;" d="M664 1620L864 1860L956 1860L1156 1620L1056 1620L910 1790L764 1620L664 1620M452 0L40 1440L126 1440L496 152L864 1440L952 1440L1322 152L1690 1440L1778 1440L1366 0L1278 0L908 1286L540 0L452 0Z"  horiz-adv-x="1818" vert-adv-y="2000"  />

      
      <glyph glyph-name="uni1E84" unicode="&#x1E84;" d="M452 0L40 1440L126 1440L496 152L864 1440L952 1440L1322 152L1690 1440L1778 1440L1366 0L1278 0L908 1286L540 0L452 0M730 1667Q709 1667 692 1676.50Q675 1686 665.50 1703Q656 1720 656 1740Q656 1761 665.50 1778Q675 1795 692 1804.50Q709 1814 730 1814Q750 1814 767 1804.50Q784 1795 794 1778Q804 1761 804 1740Q804 1720 794 1703Q784 1686 767 1676.50Q750 1667 730 1667M1090 1667Q1069 1667 1052 1676.50Q1035 1686 1025.50 1703Q1016 1720 1016 1740Q1016 1761 1025.50 1778Q1035 1795 1052 1804.50Q1069 1814 1090 1814Q1110 1814 1127 1804.50Q1144 1795 1154 1778Q1164 1761 1164 1740Q1164 1720 1154 1703Q1144 1686 1127 1676.50Q1110 1667 1090 1667Z"  horiz-adv-x="1818" vert-adv-y="2000"  />

      
      <glyph glyph-name="uni1E80" unicode="&#x1E80;" d="M858 1890L762 1890L858 1620L924 1620L858 1890M452 0L40 1440L126 1440L496 152L864 1440L952 1440L1322 152L1690 1440L1778 1440L1366 0L1278 0L908 1286L540 0L452 0Z"  horiz-adv-x="1818" vert-adv-y="2000"  />

      
      <glyph glyph-name="uni58" unicode="&#x58;" d="M20 0L526 730L32 1440L132 1440L572 798L1014 1440L1114 1440L620 730L1126 0L1026 0L572 660L120 0L20 0Z"  horiz-adv-x="1146" vert-adv-y="2000"  />

      
      <glyph glyph-name="uni59" unicode="&#x59;" d="M478 0L478 612L0 1440L96 1440L520 708L942 1440L1038 1440L562 612L562 0L478 0Z"  horiz-adv-x="1038" vert-adv-y="2000"  />

      
      <glyph glyph-name="unidd" unicode="&#xdd;" d="M535 1890L469 1620L535 1620L631 1890L535 1890M478 0L478 612L0 1440L96 1440L520 708L942 1440L1038 1440L562 612L562 0L478 0Z"  horiz-adv-x="1038" vert-adv-y="2000"  />

      
      <glyph glyph-name="uni0176" unicode="&#x0176;" d="M274 1620L474 1860L566 1860L766 1620L666 1620L520 1790L374 1620L274 1620M478 0L478 612L0 1440L96 1440L520 708L942 1440L1038 1440L562 612L562 0L478 0Z"  horiz-adv-x="1038" vert-adv-y="2000"  />

      
      <glyph glyph-name="uni0178" unicode="&#x0178;" d="M478 0L478 612L0 1440L96 1440L520 708L942 1440L1038 1440L562 612L562 0L478 0M340 1667Q319 1667 302 1676.50Q285 1686 275.50 1703Q266 1720 266 1740Q266 1761 275.50 1778Q285 1795 302 1804.50Q319 1814 340 1814Q360 1814 377 1804.50Q394 1795 404 1778Q414 1761 414 1740Q414 1720 404 1703Q394 1686 377 1676.50Q360 1667 340 1667M700 1667Q679 1667 662 1676.50Q645 1686 635.50 1703Q626 1720 626 1740Q626 1761 635.50 1778Q645 1795 662 1804.50Q679 1814 700 1814Q720 1814 737 1804.50Q754 1795 764 1778Q774 1761 774 1740Q774 1720 764 1703Q754 1686 737 1676.50Q720 1667 700 1667Z"  horiz-adv-x="1038" vert-adv-y="2000"  />

      
      <glyph glyph-name="uni1EF4" unicode="&#x1EF4;" d="M478 0L478 612L0 1440L96 1440L520 708L942 1440L1038 1440L562 612L562 0L478 0M519-390Q498-390 481-380.50Q464-371 454.50-354Q445-337 445-317Q445-296 454.50-279Q464-262 481-252.50Q498-243 519-243Q539-243 556-252.50Q573-262 583-279Q593-296 593-317Q593-337 583-354Q573-371 556-380.50Q539-390 519-390Z"  horiz-adv-x="1038" vert-adv-y="2000"  />

      
      <glyph glyph-name="uni1EF2" unicode="&#x1EF2;" d="M483 1890L387 1890L483 1620L549 1620L483 1890M478 0L478 612L0 1440L96 1440L520 708L942 1440L1038 1440L562 612L562 0L478 0Z"  horiz-adv-x="1038" vert-adv-y="2000"  />

      
      <glyph glyph-name="uni1EF6" unicode="&#x1EF6;" d="M384 1860Q415 1897 458.50 1914.50Q502 1932 546.50 1921.50Q591 1911 624 1868Q656 1826 654.50 1774.50Q653 1723 623 1678Q593 1633 544 1606L492 1654Q533 1676 556 1705.50Q579 1735 581.50 1765Q584 1795 568 1820Q544 1858 501.50 1853Q459 1848 422 1811L384 1860M478 0L478 612L0 1440L96 1440L520 708L942 1440L1038 1440L562 612L562 0L478 0Z"  horiz-adv-x="1038" vert-adv-y="2000"  />

      
      <glyph glyph-name="uni1EF8" unicode="&#x1EF8;" d="M674 1620Q637 1620 600.50 1633.50Q564 1647 515 1673Q471 1695 444 1705.50Q417 1716 392 1716Q365 1716 350 1702.50Q335 1689 333 1669Q331 1649 338 1630L266 1630Q254 1675 267.50 1713Q281 1751 315 1773.50Q349 1796 394 1796Q432 1796 468.50 1782.50Q505 1769 556 1743Q600 1721 626.50 1710.50Q653 1700 678 1700Q714 1700 729 1727Q744 1754 732 1790L804 1790Q816 1746 802.50 1706.50Q789 1667 755 1643.50Q721 1620 674 1620M478 0L478 612L0 1440L96 1440L520 708L942 1440L1038 1440L562 612L562 0L478 0Z"  horiz-adv-x="1038" vert-adv-y="2000"  />

      
      <glyph glyph-name="uni5a" unicode="&#x5a;" d="M100 0L100 30L938 1356L100 1356L100 1440L1062 1440L1062 1406L228 82L1062 82L1062 0L100 0Z"  horiz-adv-x="1162" vert-adv-y="2000"  />

      
      <glyph glyph-name="uni0179" unicode="&#x0179;" d="M607 1890L541 1620L607 1620L703 1890L607 1890M100 0L100 30L938 1356L100 1356L100 1440L1062 1440L1062 1406L228 82L1062 82L1062 0L100 0Z"  horiz-adv-x="1162" vert-adv-y="2000"  />

      
      <glyph glyph-name="uni017D" unicode="&#x017D;" d="M100 0L100 30L938 1356L100 1356L100 1440L1062 1440L1062 1406L228 82L1062 82L1062 0L100 0M386 1860L486 1860L632 1690L778 1860L878 1860L678 1620L586 1620L386 1860Z"  horiz-adv-x="1162" vert-adv-y="2000"  />

      
      <glyph glyph-name="uni017B" unicode="&#x017B;" d="M100 0L100 30L938 1356L100 1356L100 1440L1062 1440L1062 1406L228 82L1062 82L1062 0L100 0M634 1667Q613 1667 596 1676.50Q579 1686 569.50 1703Q560 1720 560 1740Q560 1761 569.50 1778Q579 1795 596 1804.50Q613 1814 634 1814Q654 1814 671 1804.50Q688 1795 698 1778Q708 1761 708 1740Q708 1720 698 1703Q688 1686 671 1676.50Q654 1667 634 1667Z"  horiz-adv-x="1162" vert-adv-y="2000"  />

      
      <glyph glyph-name="uni61" unicode="&#x61;" d="M454-30Q333-30 248.50 13Q164 56 122 127.50Q80 199 80 286Q80 418 162 492.50Q244 567 374 594Q466 613 562.50 625.50Q659 638 817 657Q845 660 868.50 662.50Q892 665 910 668L880 648Q883 778 851.50 861Q820 944 746 985Q672 1026 548 1026Q412 1026 329.50 965.50Q247 905 214 780L122 804Q158 953 269 1031.50Q380 1110 552 1110Q700 1110 800.50 1049.50Q901 989 938 884Q951 845 957.50 789Q964 733 964 676L964 0L886 0L886 296L926 294Q897 193 829.50 119.50Q762 46 665.50 8Q569-30 454-30M450 54Q566 54 656 96Q746 138 801.50 218Q857 298 872 408Q878 450 879 494Q880 538 880 603L880 620L924 586L870 581Q718 567 602 553Q486 539 392 516Q299 493 233.50 438.50Q168 384 168 284Q168 227 195.50 174.50Q223 122 286.50 88Q350 54 450 54Z"  horiz-adv-x="1084" vert-adv-y="2000"  />

      
      <glyph glyph-name="unie1" unicode="&#xe1;" d="M593 1530L527 1260L593 1260L689 1530L593 1530M454-30Q333-30 248.50 13Q164 56 122 127.50Q80 199 80 286Q80 418 162 492.50Q244 567 374 594Q466 613 562.50 625.50Q659 638 817 657Q845 660 868.50 662.50Q892 665 910 668L880 648Q883 778 851.50 861Q820 944 746 985Q672 1026 548 1026Q412 1026 329.50 965.50Q247 905 214 780L122 804Q158 953 269 1031.50Q380 1110 552 1110Q700 1110 800.50 1049.50Q901 989 938 884Q951 845 957.50 789Q964 733 964 676L964 0L886 0L886 296L926 294Q897 193 829.50 119.50Q762 46 665.50 8Q569-30 454-30M450 54Q566 54 656 96Q746 138 801.50 218Q857 298 872 408Q878 450 879 494Q880 538 880 603L880 620L924 586L870 581Q718 567 602 553Q486 539 392 516Q299 493 233.50 438.50Q168 384 168 284Q168 227 195.50 174.50Q223 122 286.50 88Q350 54 450 54Z"  horiz-adv-x="1084" vert-adv-y="2000"  />

      
      <glyph glyph-name="uni0103" unicode="&#x0103;" d="M560 1212Q498 1212 445.50 1242.50Q393 1273 362.50 1325.50Q332 1378 332 1440L410 1440Q410 1400 430.50 1365.50Q451 1331 485.50 1310.50Q520 1290 560 1290Q601 1290 635.50 1310.50Q670 1331 690 1365.50Q710 1400 710 1440L788 1440Q788 1378 757.50 1325.50Q727 1273 674.50 1242.50Q622 1212 560 1212M454-30Q333-30 248.50 13Q164 56 122 127.50Q80 199 80 286Q80 418 162 492.50Q244 567 374 594Q466 613 562.50 625.50Q659 638 817 657Q845 660 868.50 662.50Q892 665 910 668L880 648Q883 778 851.50 861Q820 944 746 985Q672 1026 548 1026Q412 1026 329.50 965.50Q247 905 214 780L122 804Q158 953 269 1031.50Q380 1110 552 1110Q700 1110 800.50 1049.50Q901 989 938 884Q951 845 957.50 789Q964 733 964 676L964 0L886 0L886 296L926 294Q897 193 829.50 119.50Q762 46 665.50 8Q569-30 454-30M450 54Q566 54 656 96Q746 138 801.50 218Q857 298 872 408Q878 450 879 494Q880 538 880 603L880 620L924 586L870 581Q718 567 602 553Q486 539 392 516Q299 493 233.50 438.50Q168 384 168 284Q168 227 195.50 174.50Q223 122 286.50 88Q350 54 450 54Z"  horiz-adv-x="1084" vert-adv-y="2000"  />

      
      <glyph glyph-name="uni1EAF" unicode="&#x1EAF;" d="M597 1740L531 1470L597 1470L693 1740L597 1740M559 1212Q497 1212 444.50 1242.50Q392 1273 361.50 1325.50Q331 1378 331 1440L409 1440Q409 1400 429.50 1365.50Q450 1331 484.50 1310.50Q519 1290 559 1290Q600 1290 634.50 1310.50Q669 1331 689 1365.50Q709 1400 709 1440L787 1440Q787 1378 756.50 1325.50Q726 1273 673.50 1242.50Q621 1212 559 1212M454-30Q333-30 248.50 13Q164 56 122 127.50Q80 199 80 286Q80 418 162 492.50Q244 567 374 594Q466 613 562.50 625.50Q659 638 817 657Q845 660 868.50 662.50Q892 665 910 668L880 648Q883 778 851.50 861Q820 944 746 985Q672 1026 548 1026Q412 1026 329.50 965.50Q247 905 214 780L122 804Q158 953 269 1031.50Q380 1110 552 1110Q700 1110 800.50 1049.50Q901 989 938 884Q951 845 957.50 789Q964 733 964 676L964 0L886 0L886 296L926 294Q897 193 829.50 119.50Q762 46 665.50 8Q569-30 454-30M450 54Q566 54 656 96Q746 138 801.50 218Q857 298 872 408Q878 450 879 494Q880 538 880 603L880 620L924 586L870 581Q718 567 602 553Q486 539 392 516Q299 493 233.50 438.50Q168 384 168 284Q168 227 195.50 174.50Q223 122 286.50 88Q350 54 450 54Z"  horiz-adv-x="1084" vert-adv-y="2000"  />

      
      <glyph glyph-name="uni1EB7" unicode="&#x1EB7;" d="M454-30Q333-30 248.50 13Q164 56 122 127.50Q80 199 80 286Q80 418 162 492.50Q244 567 374 594Q466 613 562.50 625.50Q659 638 817 657Q845 660 868.50 662.50Q892 665 910 668L880 648Q883 778 851.50 861Q820 944 746 985Q672 1026 548 1026Q412 1026 329.50 965.50Q247 905 214 780L122 804Q158 953 269 1031.50Q380 1110 552 1110Q700 1110 800.50 1049.50Q901 989 938 884Q951 845 957.50 789Q964 733 964 676L964 0L886 0L886 296L926 294Q897 193 829.50 119.50Q762 46 665.50 8Q569-30 454-30M450 54Q566 54 656 96Q746 138 801.50 218Q857 298 872 408Q878 450 879 494Q880 538 880 603L880 620L924 586L870 581Q718 567 602 553Q486 539 392 516Q299 493 233.50 438.50Q168 384 168 284Q168 227 195.50 174.50Q223 122 286.50 88Q350 54 450 54M560 1212Q498 1212 445.50 1242.50Q393 1273 362.50 1325.50Q332 1378 332 1440L410 1440Q410 1400 430.50 1365.50Q451 1331 485.50 1310.50Q520 1290 560 1290Q601 1290 635.50 1310.50Q670 1331 690 1365.50Q710 1400 710 1440L788 1440Q788 1378 757.50 1325.50Q727 1273 674.50 1242.50Q622 1212 560 1212M522-390Q501-390 484-380.50Q467-371 457.50-354Q448-337 448-317Q448-296 457.50-279Q467-262 484-252.50Q501-243 522-243Q542-243 559-252.50Q576-262 586-279Q596-296 596-317Q596-337 586-354Q576-371 559-380.50Q542-390 522-390Z"  horiz-adv-x="1084" vert-adv-y="2000"  />

      
      <glyph glyph-name="uni1EB1" unicode="&#x1EB1;" d="M529 1740L433 1740L529 1470L595 1470L529 1740M567 1212Q505 1212 452.50 1242.50Q400 1273 369.50 1325.50Q339 1378 339 1440L417 1440Q417 1400 437 1365.50Q457 1331 491.50 1310.50Q526 1290 567 1290Q607 1290 641.50 1310.50Q676 1331 696.50 1365.50Q717 1400 717 1440L795 1440Q795 1378 764.50 1325.50Q734 1273 681.50 1242.50Q629 1212 567 1212M454-30Q333-30 248.50 13Q164 56 122 127.50Q80 199 80 286Q80 418 162 492.50Q244 567 374 594Q466 613 562.50 625.50Q659 638 817 657Q845 660 868.50 662.50Q892 665 910 668L880 648Q883 778 851.50 861Q820 944 746 985Q672 1026 548 1026Q412 1026 329.50 965.50Q247 905 214 780L122 804Q158 953 269 1031.50Q380 1110 552 1110Q700 1110 800.50 1049.50Q901 989 938 884Q951 845 957.50 789Q964 733 964 676L964 0L886 0L886 296L926 294Q897 193 829.50 119.50Q762 46 665.50 8Q569-30 454-30M450 54Q566 54 656 96Q746 138 801.50 218Q857 298 872 408Q878 450 879 494Q880 538 880 603L880 620L924 586L870 581Q718 567 602 553Q486 539 392 516Q299 493 233.50 438.50Q168 384 168 284Q168 227 195.50 174.50Q223 122 286.50 88Q350 54 450 54Z"  horiz-adv-x="1084" vert-adv-y="2000"  />

      
      <glyph glyph-name="uni1EB3" unicode="&#x1EB3;" d="M411 1701Q442 1738 485.50 1755.50Q529 1773 573.50 1762.50Q618 1752 651 1709Q683 1667 681.50 1615.50Q680 1564 650 1519Q620 1474 571 1447L519 1495Q560 1517 583 1546.50Q606 1576 608.50 1606Q611 1636 595 1661Q571 1699 528.50 1694Q486 1689 449 1652L411 1701M573 1212Q511 1212 458.50 1242.50Q406 1273 375.50 1325.50Q345 1378 345 1440L423 1440Q423 1400 443.50 1365.50Q464 1331 498.50 1310.50Q533 1290 573 1290Q614 1290 648.50 1310.50Q683 1331 703 1365.50Q723 1400 723 1440L801 1440Q801 1378 770.50 1325.50Q740 1273 687.50 1242.50Q635 1212 573 1212M454-30Q333-30 248.50 13Q164 56 122 127.50Q80 199 80 286Q80 418 162 492.50Q244 567 374 594Q466 613 562.50 625.50Q659 638 817 657Q845 660 868.50 662.50Q892 665 910 668L880 648Q883 778 851.50 861Q820 944 746 985Q672 1026 548 1026Q412 1026 329.50 965.50Q247 905 214 780L122 804Q158 953 269 1031.50Q380 1110 552 1110Q700 1110 800.50 1049.50Q901 989 938 884Q951 845 957.50 789Q964 733 964 676L964 0L886 0L886 296L926 294Q897 193 829.50 119.50Q762 46 665.50 8Q569-30 454-30M450 54Q566 54 656 96Q746 138 801.50 218Q857 298 872 408Q878 450 879 494Q880 538 880 603L880 620L924 586L870 581Q718 567 602 553Q486 539 392 516Q299 493 233.50 438.50Q168 384 168 284Q168 227 195.50 174.50Q223 122 286.50 88Q350 54 450 54Z"  horiz-adv-x="1084" vert-adv-y="2000"  />

      
      <glyph glyph-name="uni1EB5" unicode="&#x1EB5;" d="M526 1212Q464 1212 411.50 1242.50Q359 1273 328.50 1325.50Q298 1378 298 1440L376 1440Q376 1400 396.50 1365.50Q417 1331 451.50 1310.50Q486 1290 526 1290Q567 1290 601.50 1310.50Q636 1331 656 1365.50Q676 1400 676 1440L754 1440Q754 1378 723.50 1325.50Q693 1273 640.50 1242.50Q588 1212 526 1212M667 1490Q630 1490 593.50 1503.50Q557 1517 508 1543Q464 1565 437 1575.50Q410 1586 385 1586Q358 1586 343 1572.50Q328 1559 326 1539Q324 1519 331 1500L259 1500Q247 1545 260.50 1583Q274 1621 308 1643.50Q342 1666 387 1666Q425 1666 461.50 1652.50Q498 1639 549 1613Q593 1591 619.50 1580.50Q646 1570 671 1570Q707 1570 722 1597Q737 1624 725 1660L797 1660Q809 1616 795.50 1576.50Q782 1537 748 1513.50Q714 1490 667 1490M454-30Q333-30 248.50 13Q164 56 122 127.50Q80 199 80 286Q80 418 162 492.50Q244 567 374 594Q466 613 562.50 625.50Q659 638 817 657Q845 660 868.50 662.50Q892 665 910 668L880 648Q883 778 851.50 861Q820 944 746 985Q672 1026 548 1026Q412 1026 329.50 965.50Q247 905 214 780L122 804Q158 953 269 1031.50Q380 1110 552 1110Q700 1110 800.50 1049.50Q901 989 938 884Q951 845 957.50 789Q964 733 964 676L964 0L886 0L886 296L926 294Q897 193 829.50 119.50Q762 46 665.50 8Q569-30 454-30M450 54Q566 54 656 96Q746 138 801.50 218Q857 298 872 408Q878 450 879 494Q880 538 880 603L880 620L924 586L870 581Q718 567 602 553Q486 539 392 516Q299 493 233.50 438.50Q168 384 168 284Q168 227 195.50 174.50Q223 122 286.50 88Q350 54 450 54Z"  horiz-adv-x="1084" vert-adv-y="2000"  />

      
      <glyph glyph-name="unie2" unicode="&#xe2;" d="M312 1260L512 1500L604 1500L804 1260L704 1260L558 1430L412 1260L312 1260M454-30Q333-30 248.50 13Q164 56 122 127.50Q80 199 80 286Q80 418 162 492.50Q244 567 374 594Q466 613 562.50 625.50Q659 638 817 657Q845 660 868.50 662.50Q892 665 910 668L880 648Q883 778 851.50 861Q820 944 746 985Q672 1026 548 1026Q412 1026 329.50 965.50Q247 905 214 780L122 804Q158 953 269 1031.50Q380 1110 552 1110Q700 1110 800.50 1049.50Q901 989 938 884Q951 845 957.50 789Q964 733 964 676L964 0L886 0L886 296L926 294Q897 193 829.50 119.50Q762 46 665.50 8Q569-30 454-30M450 54Q566 54 656 96Q746 138 801.50 218Q857 298 872 408Q878 450 879 494Q880 538 880 603L880 620L924 586L870 581Q718 567 602 553Q486 539 392 516Q299 493 233.50 438.50Q168 384 168 284Q168 227 195.50 174.50Q223 122 286.50 88Q350 54 450 54Z"  horiz-adv-x="1084" vert-adv-y="2000"  />

      
      <glyph glyph-name="uni1EA5" unicode="&#x1EA5;" d="M873 1740L807 1470L873 1470L969 1740L873 1740M319 1260L519 1500L611 1500L811 1260L711 1260L565 1430L419 1260L319 1260M454-30Q333-30 248.50 13Q164 56 122 127.50Q80 199 80 286Q80 418 162 492.50Q244 567 374 594Q466 613 562.50 625.50Q659 638 817 657Q845 660 868.50 662.50Q892 665 910 668L880 648Q883 778 851.50 861Q820 944 746 985Q672 1026 548 1026Q412 1026 329.50 965.50Q247 905 214 780L122 804Q158 953 269 1031.50Q380 1110 552 1110Q700 1110 800.50 1049.50Q901 989 938 884Q951 845 957.50 789Q964 733 964 676L964 0L886 0L886 296L926 294Q897 193 829.50 119.50Q762 46 665.50 8Q569-30 454-30M450 54Q566 54 656 96Q746 138 801.50 218Q857 298 872 408Q878 450 879 494Q880 538 880 603L880 620L924 586L870 581Q718 567 602 553Q486 539 392 516Q299 493 233.50 438.50Q168 384 168 284Q168 227 195.50 174.50Q223 122 286.50 88Q350 54 450 54Z"  horiz-adv-x="1084" vert-adv-y="2000"  />

      
      <glyph glyph-name="uni1EAD" unicode="&#x1EAD;" d="M454-30Q333-30 248.50 13Q164 56 122 127.50Q80 199 80 286Q80 418 162 492.50Q244 567 374 594Q466 613 562.50 625.50Q659 638 817 657Q845 660 868.50 662.50Q892 665 910 668L880 648Q883 778 851.50 861Q820 944 746 985Q672 1026 548 1026Q412 1026 329.50 965.50Q247 905 214 780L122 804Q158 953 269 1031.50Q380 1110 552 1110Q700 1110 800.50 1049.50Q901 989 938 884Q951 845 957.50 789Q964 733 964 676L964 0L886 0L886 296L926 294Q897 193 829.50 119.50Q762 46 665.50 8Q569-30 454-30M450 54Q566 54 656 96Q746 138 801.50 218Q857 298 872 408Q878 450 879 494Q880 538 880 603L880 620L924 586L870 581Q718 567 602 553Q486 539 392 516Q299 493 233.50 438.50Q168 384 168 284Q168 227 195.50 174.50Q223 122 286.50 88Q350 54 450 54M312 1260L512 1500L604 1500L804 1260L704 1260L558 1430L412 1260L312 1260M522-390Q501-390 484-380.50Q467-371 457.50-354Q448-337 448-317Q448-296 457.50-279Q467-262 484-252.50Q501-243 522-243Q542-243 559-252.50Q576-262 586-279Q596-296 596-317Q596-337 586-354Q576-371 559-380.50Q542-390 522-390Z"  horiz-adv-x="1084" vert-adv-y="2000"  />

      
      </font>
</defs>
</svg>
