<svg width="153" height="18" viewBox="0 0 153 18" fill="none" xmlns="http://www.w3.org/2000/svg">
<path d="M4.90418 17.6645L0.243164 0.360474H3.26405L6.88842 13.7044L10.6866 0.360474H13.5345L17.4183 13.7906L20.9571 0.360474H24.0644L19.4034 17.6645H15.8646L12.1538 4.75094L8.44209 17.6645H4.90418Z" fill="#FEFEFE"/>
<path d="M26.1353 0.360474H29.0697V17.6645H26.1353V0.360474Z" fill="#FEFEFE"/>
<path d="M35.284 14.9954H42.3607V17.6645H32.436V0.360474H35.284V14.9954Z" fill="#FEFEFE"/>
<path d="M51.2499 0.360474C53.6708 0.360474 55.6516 1.22287 57.2052 2.86143C58.7615 4.58622 59.6261 6.64908 59.6261 9.05948C59.6261 11.4699 58.7615 13.5362 57.2052 15.1722C55.649 16.897 53.6665 17.6731 51.2499 17.6731H44.4326V0.360474H51.2499ZM51.2499 14.9954C52.8926 14.9954 54.2708 14.4779 55.2201 13.3568C56.3441 12.2357 56.8629 10.7748 56.8629 9.05258C56.8629 7.33037 56.3441 5.95399 55.2201 4.83459C54.2691 3.71348 52.8901 3.1098 51.2499 3.1098H47.2806V14.9902L51.2499 14.9954Z" fill="#FEFEFE"/>
<path d="M74.8989 12.7574C74.9048 13.414 74.7777 14.0651 74.5251 14.6715C74.2725 15.2779 73.8997 15.8271 73.4291 16.2863C72.3916 17.2349 71.1855 17.6661 69.7183 17.6661H62.2983V0.360401H69.1165C70.4573 0.34124 71.7546 0.835001 72.7417 1.74024C73.7793 2.68887 74.2115 3.80999 74.2115 5.18379C74.2115 6.73611 73.6063 7.85291 72.4824 8.71358C74.036 9.48543 74.8989 10.9489 74.8989 12.7574ZM65.1463 3.02952V7.59161H69.203C70.4134 7.59161 71.3645 6.64297 71.3645 5.35369C71.3645 4.0644 70.4134 3.02521 69.203 3.02521L65.1463 3.02952ZM69.7209 15.0815C71.0178 15.0815 72.0553 13.9604 72.0553 12.5806C72.0553 11.2007 71.0178 10.1702 69.7209 10.1702H65.1463V15.0772L69.7209 15.0815Z" fill="#FEFEFE"/>
<path d="M80.5091 14.9954H88.1901V17.6645H77.6611V0.360474H88.0181V3.11583H80.5091V7.59254H87.4137V10.2608H80.5091V14.9954Z" fill="#FEFEFE"/>
<path d="M100.618 17.6645L96.9926 11.3793H93.5403V17.6645H90.7788V0.360474H97.6834C99.2397 0.360474 100.618 0.877912 101.654 1.99903C102.689 3.12015 103.296 4.41374 103.296 5.95916C103.296 8.11084 101.913 10.1771 99.8441 10.9516L103.814 17.6671L100.618 17.6645ZM93.5403 3.0296V8.88355H97.6834C99.2397 8.88355 100.358 7.58996 100.358 5.95657C100.358 4.32319 99.1481 3.0296 97.6834 3.0296H93.5403Z" fill="#FEFEFE"/>
<path d="M115.809 17.6645L112.184 11.3793H108.818V17.6645H105.97V0.360474H112.961C114.517 0.360474 115.809 0.877912 116.845 1.99903C117.969 3.03391 118.487 4.41374 118.487 5.95916C118.487 8.11084 117.104 10.1771 115.035 10.9516L119.005 17.6671L115.809 17.6645ZM108.818 3.0296V8.88355H112.874C114.431 8.88355 115.636 7.58996 115.636 5.95657C115.636 4.32319 114.425 3.0296 112.874 3.0296H108.818Z" fill="#FEFEFE"/>
<path d="M121.073 0.360474H123.922V17.6645H121.073V0.360474Z" fill="#FEFEFE"/>
<path d="M130.136 14.9954H137.817V17.6645H127.288V0.360474H137.731V3.11583H130.136V7.59254H137.127V10.2608H130.136V14.9954Z" fill="#FEFEFE"/>
<path d="M139.802 13.7906L142.31 12.3245C143.001 14.308 144.471 15.2515 146.625 15.2515C148.778 15.2515 149.819 14.3029 149.819 12.923C149.819 12.2331 149.559 11.7157 148.954 11.3707C148.435 10.9395 147.398 10.5946 145.933 10.0771C144.204 9.64592 143.43 9.30096 142.221 8.5248C141.097 7.74864 140.579 6.62753 140.579 4.99501C140.579 3.52893 141.097 2.32675 142.221 1.37984C143.259 0.517439 144.638 0 146.192 0C148.958 0 151.111 1.46607 152.233 3.87389L149.812 5.25373C149.121 3.61517 147.824 2.83901 146.187 2.83901C144.458 2.83901 143.426 3.61517 143.426 4.99501C143.426 6.2886 144.29 6.89228 146.965 7.66413C147.57 7.92285 148.089 8.09533 148.348 8.18157C148.797 8.30814 149.232 8.48157 149.645 8.69901C150.25 8.87149 150.682 9.13021 150.942 9.38892C151.893 10.0788 152.757 11.2 152.757 12.9179C152.757 14.4702 152.152 15.7638 151.028 16.7064C149.904 17.5688 148.44 18 146.541 18C143.168 18.0086 140.752 16.4589 139.802 13.7906Z" fill="#FEFEFE"/>
</svg>
