<svg width="145" height="18" viewBox="0 0 145 18" fill="none" xmlns="http://www.w3.org/2000/svg">
<path d="M82.0784 17.5636H73.1147V0.436157H80.9951C84.561 0.436157 86.4964 2.65829 86.4964 5.28774C86.4964 6.46765 85.9014 7.67372 84.99 8.58624C86.3349 9.29624 87.4874 10.896 87.4874 12.564C87.4851 15.4985 85.1947 17.5636 82.0784 17.5636ZM77.3473 14.1182H81.5014C82.5278 14.1182 83.2024 13.3593 83.2024 12.4275V12.4002C83.2024 11.4683 82.5278 10.7094 81.5014 10.7094H77.3473V14.1182ZM77.3473 7.26297H80.4433C81.5516 7.26297 82.2114 6.50406 82.2114 5.57221C82.2114 4.64034 81.5925 3.88143 80.4433 3.88143H77.3473V7.26297Z" fill="white"/>
<path d="M34.4176 17.5636L28.2518 8.80812L34.2322 0.436157H29.2475L24.4949 7.29598V0.436157H20.1621V17.5636H24.4949V10.5364L29.2668 17.5636H34.4176Z" fill="white"/>
<path d="M112.27 0.436157V13.1102C112.27 13.679 112.019 14.116 111.487 14.116C110.736 14.116 110.703 13.2569 110.703 12.6892H106.637C106.637 15.4369 108.212 17.9993 111.611 17.9993C114.568 17.9993 116.603 15.5928 116.603 12.6356V4.29331H122.463V17.5646H126.796V0.436157H112.27Z" fill="white"/>
<path d="M53.8933 0.436157L47.8959 13.0828C46.7854 15.4893 44.4984 17.997 40.6037 17.997C37.2882 17.997 34.1717 15.9831 33.6177 11.5479H37.8195C38.1302 13.3196 39.392 14.1069 40.7995 14.1069C42.0066 14.1069 42.8179 13.3912 43.042 12.9815L35.8989 0.436157H40.8824L45.4201 8.72733L49.1622 0.436157H53.8933Z" fill="white"/>
<path d="M12.461 17.5636H0.924805V0.436157H11.3778C14.9437 0.436157 16.8791 2.65829 16.8791 5.28774C16.8791 6.46765 16.2841 7.67372 15.3727 8.58624C16.7175 9.29624 17.8701 10.896 17.8701 12.564C17.869 15.4985 15.5786 17.5636 12.461 17.5636ZM5.15858 14.1182H11.8853C12.9116 14.1182 13.5863 13.3593 13.5863 12.4275V12.4002C13.5863 11.4683 12.9116 10.7094 11.8853 10.7094H5.15858V14.1182ZM5.15858 7.26297H10.8271C11.9353 7.26297 12.5953 6.50406 12.5953 5.57221C12.5953 4.64034 11.9763 3.88143 10.8271 3.88143H5.15858V7.26297Z" fill="white"/>
<path d="M66.3105 11.1357C65.6437 12.7058 64.2113 13.8106 62.2144 13.8106C59.3949 13.8106 57.6984 11.6079 57.6984 9.00571V8.99775C57.6984 6.39446 59.3961 4.19167 62.2144 4.19167C64.2181 4.19167 65.655 5.30557 66.3184 6.88372H70.98C70.1084 2.96057 66.8167 0 62.2144 0C56.8155 0 53.2178 4.07448 53.2178 8.99661V9.00344C53.2178 13.9256 56.8155 18 62.2144 18C66.81 18 70.0982 15.0474 70.9766 11.1334H66.3105V11.1357Z" fill="white"/>
<path d="M101.539 0.436157L94.3077 10.335V0.436157H89.9751V17.5636H93.9278L101.161 7.67373V17.5636H105.494V0.436157H101.539Z" fill="white"/>
<path d="M131.692 0.436157V12.0201C131.692 13.092 131.08 13.7269 129.985 13.7269H128.708V17.5646H131.005C134.02 17.5646 136.025 15.6645 136.025 12.176V4.29217H140.408V17.5636H144.741V0.436157H131.692Z" fill="white"/>
</svg>
