<svg width="92" height="20" viewBox="0 0 92 20" fill="none" xmlns="http://www.w3.org/2000/svg">
<path d="M38.6225 14.8809H30.7178L40.8095 1.52718C41.0294 1.23396 40.9683 0.806353 40.6751 0.586439C40.5651 0.500917 40.4185 0.452046 40.2719 0.452046H25.672C24.3892 0.452046 23.3385 1.50275 23.3385 2.78558C23.3385 4.06842 24.3892 5.11912 25.672 5.11912H32.2328L22.1045 18.485C21.8724 18.7782 21.9335 19.1936 22.2267 19.4258C22.3489 19.5235 22.4955 19.5724 22.6421 19.5602H38.6103C39.8932 19.4991 40.8828 18.3995 40.8217 17.1045C40.7606 15.9071 39.8076 14.9542 38.6103 14.8931V14.8809H38.6225ZM89.6427 0.452046C88.3599 0.452046 87.3092 1.50275 87.3092 2.78558V10.617L74.7007 0.610874C74.4197 0.378742 73.9921 0.415394 73.76 0.708614C73.6623 0.830788 73.6134 0.977398 73.6134 1.13623V17.2266C73.6134 18.5095 74.6641 19.5602 75.9469 19.5602C77.2298 19.5602 78.2805 18.5217 78.2805 17.2266V9.39523L90.8889 19.4136C91.1821 19.6457 91.6097 19.5968 91.8419 19.3036C91.9396 19.1814 91.9885 19.0348 91.9885 18.8882V2.78558C91.9762 1.49053 90.9378 0.452046 89.6427 0.452046ZM56.2768 15.3207C50.9378 15.3207 46.9549 12.5107 46.9549 9.99389C46.9549 7.47709 50.95 4.66707 56.2768 4.66707C61.6158 4.66707 65.5987 7.47709 65.5987 9.99389C65.5987 12.5107 61.628 15.3207 56.2768 15.3207ZM56.2768 0C48.5554 0 42.2878 4.47159 42.2878 9.99389C42.2878 15.5162 48.5554 19.9878 56.2768 19.9878C63.9982 19.9878 70.2658 15.5162 70.2658 9.99389C70.2658 4.47159 63.9982 0 56.2768 0ZM10.3513 15.3329C7.40691 15.3329 5.01229 12.9505 5.01229 10.0061C5.01229 7.0617 7.3947 4.66707 10.3391 4.66707C13.2835 4.66707 15.6781 7.04948 15.6781 9.99389V10.0061C15.6781 12.9383 13.2957 15.3207 10.3513 15.3329ZM10.3513 0C4.82903 0 0.357432 4.47159 0.345215 9.99389C0.345215 15.5162 4.81681 19.9878 10.3391 20C15.8614 20 20.333 15.5284 20.3452 10.0061V9.99389C20.333 4.47159 15.8614 0 10.3513 0Z" fill="white"/>
</svg>
