<svg width="56" height="56" viewBox="0 0 56 56" fill="none" xmlns="http://www.w3.org/2000/svg">
<path d="M30.7516 32.4284C30.7516 29.6583 28.9659 26.4285 25.6088 26.4285C28.9659 26.4285 30.7516 23.1986 30.7516 20.4285C30.7516 23.1986 32.5373 26.4285 35.8945 26.4285C32.5373 26.4285 30.7516 29.6701 30.7516 32.4284Z" stroke="#607755" stroke-width="1.2" stroke-miterlimit="10" stroke-linecap="round" stroke-linejoin="bevel"/>
<path d="M34.4662 18.988V8.28894H22.5001V18.988C22.5001 24.1455 20.2169 29.2053 17.4717 33.6399L9.02549 47.2889C7.46262 49.809 9.35845 52.9998 12.4162 52.9998H44.5433C47.601 52.9998 49.4969 49.809 47.934 47.2889L39.4945 33.6399C36.7493 29.2053 34.4662 24.139 34.4662 18.988Z" stroke="#607755" stroke-width="1.2" stroke-miterlimit="10" stroke-linejoin="bevel"/>
<path d="M34.6559 8.28853H22.3093C21.5822 8.28853 20.9843 7.72199 20.9843 7.0187V6.26983C20.9843 5.57305 21.5754 5 22.3093 5H34.6559C35.383 5 35.9809 5.56654 35.9809 6.26983V7.0187C35.9809 7.72199 35.3898 8.28853 34.6559 8.28853Z" stroke="#607755" stroke-width="1.2" stroke-miterlimit="10" stroke-linejoin="bevel"/>
<path d="M18.7517 41C22.3596 41 23.8946 39.2086 23.8946 35.8572C23.8946 39.2086 25.4295 41 29.0374 41C25.4295 41 23.8946 42.7915 23.8946 46.1429C23.9077 42.7915 22.3596 41 18.7517 41Z" stroke="#607755" stroke-width="1.2" stroke-miterlimit="10" stroke-linecap="round" stroke-linejoin="bevel"/>
<path d="M39.4935 33.8748H17.4707" stroke="#607755" stroke-width="1.2" stroke-miterlimit="10" stroke-linejoin="bevel"/>
<path d="M30.7515 37.5713V32.4285" stroke="#607755" stroke-width="1.2" stroke-miterlimit="10" stroke-linecap="square" stroke-linejoin="bevel"/>
</svg>
