<svg width="57" height="56" viewBox="0 0 57 56" fill="none" xmlns="http://www.w3.org/2000/svg">
<path d="M33.9542 21.7504H24.4649C24.4649 24.1015 23.3578 26.3094 21.4821 27.7227L21.1108 28.0027C19.2351 29.416 18.1279 31.6239 18.1279 33.975V50.1269C18.1279 51.3839 19.1439 52.3999 20.4009 52.3999H38.0182C39.2752 52.3999 40.2912 51.3839 40.2912 50.1269V33.975C40.2912 31.6239 39.184 29.416 37.3083 28.0027L36.9371 27.7227C35.0614 26.3159 33.9542 24.1015 33.9542 21.7504Z" stroke="#607755" stroke-width="1.2" stroke-miterlimit="10" stroke-linecap="round" stroke-linejoin="bevel"/>
<path d="M35.9279 14.2604H21.6973V21.7502H35.9279V14.2604Z" stroke="#607755" stroke-width="1.2" stroke-miterlimit="10" stroke-linecap="round" stroke-linejoin="bevel"/>
<path d="M32.1241 14.2604H25.5071V6.96597C25.5071 5.54617 26.6599 4.3999 28.0731 4.3999H29.5516C30.9714 4.3999 32.1176 5.55268 32.1176 6.96597V14.2604H32.1241Z" stroke="#607755" stroke-width="1.2" stroke-miterlimit="10" stroke-linecap="round" stroke-linejoin="bevel"/>
<path d="M34.423 41.3473C34.423 44.226 32.0914 46.5576 29.2127 46.5576C26.334 46.5576 24.0024 44.226 24.0024 41.3473C24.0024 38.4687 29.2127 33.2844 29.2127 33.2844C29.2127 33.2844 29.6817 33.7533 30.3395 34.4828" stroke="#607755" stroke-width="1.2" stroke-miterlimit="10" stroke-linecap="square" stroke-linejoin="bevel"/>
<path d="M32.1237 41.9989C32.1237 40.3837 31.2575 38.4885 29.6423 38.4885C31.2575 38.4885 32.1237 36.5997 32.1237 34.978C32.1237 36.5932 32.9899 38.4885 34.6051 38.4885C32.9899 38.4885 32.1237 40.3772 32.1237 41.9989Z" stroke="#607755" stroke-width="1.2" stroke-miterlimit="10" stroke-linecap="square" stroke-linejoin="bevel"/>
</svg>
