<svg width="57" height="56" viewBox="0 0 57 56" fill="none" xmlns="http://www.w3.org/2000/svg">
<path d="M43.3522 20.7256C46.2219 25.1229 48.3991 29.6201 48.3991 33.1537C48.3991 35.0311 48.1279 36.8442 47.6139 38.5503C45.2939 46.3241 38.0841 51.9992 29.5536 51.9992C23.2575 51.9992 17.6752 48.9083 14.2559 44.1612" stroke="#607755" stroke-width="1.2" stroke-miterlimit="10" stroke-linecap="square" stroke-linejoin="bevel"/>
<path d="M11.8506 27.9924C12.4074 26.5576 13.1498 25.0728 14.0064 23.5665C15.6411 20.6969 17.7113 17.7772 19.7957 15.0932C24.6142 8.90413 29.5468 4 29.5468 4C29.5468 4 35.5574 9.98203 40.7899 17.0634" stroke="#607755" stroke-width="1.2" stroke-miterlimit="10" stroke-linecap="square" stroke-linejoin="bevel"/>
<path d="M24.1786 38.2288C28.0422 38.2288 31.1743 35.0967 31.1743 31.2331C31.1743 27.3695 28.0422 24.2374 24.1786 24.2374C20.3149 24.2374 17.1829 27.3695 17.1829 31.2331C17.1829 35.0967 20.3149 38.2288 24.1786 38.2288Z" stroke="#607755" stroke-width="1.2" stroke-miterlimit="10" stroke-linecap="round" stroke-linejoin="bevel"/>
<path d="M8.98778 41.1624C11.5583 41.1624 13.6421 39.0787 13.6421 36.5082C13.6421 33.9377 11.5583 31.8539 8.98778 31.8539C6.41729 31.8539 4.3335 33.9377 4.3335 36.5082C4.3335 39.0787 6.41729 41.1624 8.98778 41.1624Z" stroke="#607755" stroke-width="1.2" stroke-miterlimit="10" stroke-linecap="round" stroke-linejoin="bevel"/>
<path d="M32.6302 48.4434C34.6961 48.4434 36.3708 46.7687 36.3708 44.7028C36.3708 42.637 34.6961 40.9623 32.6302 40.9623C30.5644 40.9623 28.8896 42.637 28.8896 44.7028C28.8896 46.7687 30.5644 48.4434 32.6302 48.4434Z" stroke="#607755" stroke-width="1.2" stroke-miterlimit="10" stroke-linecap="round" stroke-linejoin="bevel"/>
<path d="M28.4832 17.9344C30.5491 17.9344 32.2238 16.2597 32.2238 14.1938C32.2238 12.128 30.5491 10.4532 28.4832 10.4532C26.4174 10.4532 24.7427 12.128 24.7427 14.1938C24.7427 16.2597 26.4174 17.9344 28.4832 17.9344Z" stroke="#607755" stroke-width="1.2" stroke-miterlimit="10" stroke-linecap="round" stroke-linejoin="bevel"/>
<path d="M26.2131 24.5443L27.7765 17.8627" stroke="#607755" stroke-width="1.2" stroke-miterlimit="10" stroke-linecap="round" stroke-linejoin="bevel"/>
<path d="M28.2324 36.9299L30.8879 41.3915" stroke="#607755" stroke-width="1.2" stroke-miterlimit="10" stroke-linecap="round" stroke-linejoin="bevel"/>
<path d="M13.3279 34.8451L17.4967 33.3175" stroke="#607755" stroke-width="1.2" stroke-miterlimit="10" stroke-linecap="round" stroke-linejoin="bevel"/>
<path d="M42.0601 25.166C42.0601 22.2821 40.5182 18.9127 37.6343 18.9127C40.5182 18.9127 42.0601 15.5434 42.0601 12.6594C42.0601 15.5434 43.602 18.9127 46.486 18.9127C43.602 18.9056 42.0601 22.2749 42.0601 25.166Z" stroke="#607755" stroke-width="1.2" stroke-miterlimit="10" stroke-linecap="round" stroke-linejoin="bevel"/>
</svg>
