<svg width="40" height="40" viewBox="0 0 40 40" fill="none" xmlns="http://www.w3.org/2000/svg">
<path fill-rule="evenodd" clip-rule="evenodd" d="M7.65884 18.4819C14.8156 15.3738 19.58 13.3086 21.9725 12.3066C28.7816 9.46433 30.213 8.97357 31.1332 8.95312C31.3377 8.95312 31.7875 8.99402 32.0942 9.2394C32.3396 9.44388 32.4009 9.7097 32.4418 9.91418C32.4827 10.1187 32.5236 10.5481 32.4827 10.8752C32.1147 14.7604 30.5197 24.1869 29.7018 28.5219C29.3542 30.3622 28.6794 30.9756 28.0251 31.037C26.5937 31.1597 25.51 30.0964 24.1399 29.1967C21.9725 27.7857 20.766 26.9065 18.6599 25.516C16.2266 23.9211 17.8011 23.0418 19.1915 21.6105C19.5596 21.2424 25.8371 15.5169 25.9598 15.0057C25.9803 14.9444 25.9803 14.699 25.8371 14.5763C25.694 14.4536 25.4895 14.4945 25.3259 14.5354C25.101 14.5763 21.6657 16.8665 14.9792 21.3855C13.9977 22.0603 13.1185 22.3875 12.321 22.367C11.4417 22.3466 9.76499 21.8763 8.49721 21.4673C6.96361 20.9766 5.73673 20.7107 5.83897 19.8519C5.90031 19.4021 6.51375 18.9522 7.65884 18.4819Z" fill="white"/>
</svg>
