<svg width="0" height="0" class="hidden">
  <symbol xmlns="http://www.w3.org/2000/svg" viewBox="0 0 40 40" id="icn_social_telegram">
    <path fill-rule="evenodd" clip-rule="evenodd" d="M7.65884 18.4819C14.8156 15.3738 19.58 13.3086 21.9725 12.3066C28.7816 9.46433 30.213 8.97357 31.1332 8.95312C31.3377 8.95312 31.7875 8.99402 32.0942 9.2394C32.3396 9.44388 32.4009 9.7097 32.4418 9.91418C32.4827 10.1187 32.5236 10.5481 32.4827 10.8752C32.1147 14.7604 30.5197 24.1869 29.7018 28.5219C29.3542 30.3622 28.6794 30.9756 28.0251 31.037C26.5937 31.1597 25.51 30.0964 24.1399 29.1967C21.9725 27.7857 20.766 26.9065 18.6599 25.516C16.2266 23.9211 17.8011 23.0418 19.1915 21.6105C19.5596 21.2424 25.8371 15.5169 25.9598 15.0057C25.9803 14.9444 25.9803 14.699 25.8371 14.5763C25.694 14.4536 25.4895 14.4945 25.3259 14.5354C25.101 14.5763 21.6657 16.8665 14.9792 21.3855C13.9977 22.0603 13.1185 22.3875 12.321 22.367C11.4417 22.3466 9.76499 21.8763 8.49721 21.4673C6.96361 20.9766 5.73673 20.7107 5.83897 19.8519C5.90031 19.4021 6.51375 18.9522 7.65884 18.4819Z"></path>
  </symbol>
  <symbol xmlns="http://www.w3.org/2000/svg" viewBox="0 0 40 40" id="icn_social_vk">
    <path d="M21.1912 28.3198C12.0802 28.3198 6.88352 22.0737 6.66699 11.6802H11.2308C11.3807 19.3087 14.7452 22.5401 17.4102 23.2063V11.6802H21.7077V18.2594C24.3394 17.9762 27.104 14.9781 28.0367 11.6802H32.3341C31.6179 15.7443 28.6198 18.7424 26.4878 19.975C28.6198 20.9744 32.0345 23.5894 33.3337 28.3198H28.6031C27.5871 25.1551 25.0556 22.7066 21.7077 22.3735V28.3198H21.1912Z"></path>
  </symbol>
  <symbol fill="none" xmlns="http://www.w3.org/2000/svg" viewBox="0 0 24 24" id="arrow-right-gray">
    <path d="M9.98528 6.00007L15.0536 11.9854L9.98528 17.9706" stroke-opacity="0.8" stroke-width="2" stroke-linejoin="bevel"></path>
  </symbol>
</svg>