<svg width="130" height="44" viewBox="0 0 130 44" fill="none" xmlns="http://www.w3.org/2000/svg">
<path d="M7.3779 22.3037C7.35326 21.5612 7.48575 20.822 7.76642 20.1359C8.04708 19.4498 8.46938 18.8329 9.00487 18.3266C9.52717 17.7915 10.1522 17.3711 10.8411 17.0914C11.53 16.8117 12.2682 16.6786 13.0098 16.7004C14.8866 16.7004 16.3588 17.4561 17.4266 18.9674L16.1811 19.9955C15.3822 18.8532 14.3195 18.282 12.993 18.282C11.8678 18.282 10.948 18.6601 10.2335 19.4164C9.51907 20.1726 9.16071 21.1253 9.15846 22.2745C9.14279 22.8088 9.23286 23.3408 9.42332 23.8391C9.61378 24.3374 9.90075 24.7918 10.2673 25.1755C11.0043 25.9466 11.9454 26.3322 13.0908 26.3322C14.5153 26.3322 15.578 25.785 16.279 24.6906V23.5237H12.993V21.9815H17.9937V25.0367C17.5106 25.9111 16.7993 26.6333 15.938 27.1238C15.0466 27.6399 14.036 27.906 13.0098 27.8949C12.2687 27.9189 11.5306 27.7877 10.8415 27.5094C10.1525 27.2311 9.52729 26.8117 9.00487 26.2774C8.47311 25.7689 8.05326 25.1519 7.77286 24.4671C7.49247 23.7823 7.35788 23.0451 7.3779 22.3037ZM22.3632 27.7252V16.8752H24.0796V26.1591H28.974V27.7201L22.3632 27.7252ZM32.0727 22.3037C32.053 21.5611 32.1886 20.8227 32.4705 20.1372C32.7524 19.4516 33.1742 18.8346 33.7081 18.3266C34.2234 17.7935 34.8414 17.3739 35.5235 17.0941C36.2056 16.8144 36.9371 16.6803 37.6725 16.7004C38.4089 16.683 39.1409 16.8183 39.824 17.0979C40.5071 17.3775 41.1268 17.7956 41.6454 18.3266C42.1653 18.8455 42.5783 19.4644 42.8602 20.147C43.1421 20.8297 43.2873 21.5625 43.2873 22.3028C43.2873 23.043 43.1421 23.7759 42.8602 24.4586C42.5783 25.1413 42.1653 25.7601 41.6454 26.279C40.5781 27.3224 39.1542 27.9052 37.6725 27.9052C36.1909 27.9052 34.767 27.3224 33.6996 26.279C33.1642 25.7731 32.7419 25.1564 32.4612 24.4706C32.1805 23.7848 32.0481 23.0459 32.0727 22.3037ZM41.5239 22.2865C41.5388 21.7608 41.4491 21.2374 41.26 20.7478C41.0709 20.2581 40.7864 19.8123 40.4235 19.437C39.6941 18.706 38.7109 18.2954 37.6861 18.2938C36.6612 18.2922 35.6768 18.6997 34.9452 19.4283C34.5835 19.806 34.3005 20.2537 34.1129 20.7447C33.9253 21.2357 33.837 21.7601 33.8532 22.2865C33.8532 23.4483 34.2144 24.4096 34.9367 25.1704C35.6679 25.9033 36.6544 26.3136 37.6819 26.312C38.7093 26.3104 39.6946 25.897 40.4235 25.1618C40.7871 24.7817 41.0719 24.3314 41.2609 23.8375C41.45 23.3436 41.5394 22.8162 41.5239 22.2865ZM55.6518 24.5707C55.664 24.9963 55.5848 25.4195 55.4199 25.8109C55.2549 26.2024 55.0081 26.5527 54.6966 26.8377C54.0597 27.4294 53.2238 27.7252 52.1886 27.7252H47.6082V16.8752H51.3465C52.3062 16.8752 53.0803 17.1465 53.6687 17.6891C53.9562 17.9493 54.1842 18.2702 54.3367 18.6292C54.4891 18.9883 54.5625 19.3768 54.5515 19.7676C54.5648 20.1534 54.4916 20.5373 54.3376 20.8902C54.1835 21.2431 53.9525 21.5559 53.662 21.805C54.2448 21.9816 54.7572 22.3416 55.1253 22.8331C55.4846 23.3376 55.6697 23.9484 55.6518 24.5707ZM51.1844 18.402H49.2925V21.3304H51.1844C51.6236 21.3567 52.0568 21.2163 52.3996 20.9363C52.5463 20.799 52.6614 20.6307 52.7369 20.4432C52.8124 20.2558 52.8465 20.0539 52.8367 19.8516C52.8465 19.6538 52.813 19.4562 52.7386 19.273C52.6642 19.0899 52.5507 18.9259 52.4063 18.7926C52.1205 18.5367 51.7132 18.4117 51.1844 18.4174V18.402ZM53.9203 24.5141C53.9311 24.2822 53.8914 24.0507 53.8039 23.8362C53.7163 23.6218 53.5832 23.4296 53.4139 23.2735C53.0764 22.9736 52.6207 22.8229 52.0384 22.8229H49.2874V26.1899H52.0384C52.6308 26.1899 53.0932 26.0392 53.4207 25.7393C53.5861 25.5853 53.7166 25.3965 53.8029 25.1861C53.8891 24.9757 53.9292 24.7487 53.9203 24.521V24.5141ZM66.8836 27.7184L66.1225 25.9106H61.3158L60.5564 27.7184H58.7269L63.4356 16.6935H64.0196L68.7283 27.7184H66.8836ZM65.5081 24.4164L63.731 19.9373L61.9352 24.4233L65.5081 24.4164ZM72.6928 27.7184V16.8752H74.4075V26.1591H79.3019V27.7201L72.6928 27.7184ZM93.8096 23.4346H91.6746V25.3418H93.8096C94.5218 25.3418 94.8779 25.0231 94.8779 24.389C94.8779 23.755 94.5218 23.4363 93.8096 23.4363V23.4346ZM93.4619 20.9054C93.5518 20.8151 93.6232 20.7075 93.6719 20.589C93.7206 20.4705 93.7457 20.3433 93.7457 20.2149C93.7457 20.0865 93.7206 19.9593 93.6719 19.8407C93.6232 19.7222 93.5518 19.6146 93.4619 19.5243C93.2426 19.3388 92.962 19.2451 92.6771 19.2622H91.6746V21.1676H92.6771C92.9618 21.1851 93.2424 21.092 93.4619 20.9071V20.9054ZM113.764 19.2776C113.375 19.2621 112.988 19.3286 112.626 19.4728C112.264 19.6171 111.935 19.8359 111.661 20.1155C111.121 20.6741 110.85 21.4029 110.85 22.3019C110.85 23.201 111.121 23.9343 111.661 24.5021C112.198 25.0504 112.899 25.3246 113.764 25.3246C114.149 25.337 114.534 25.269 114.893 25.1249C115.252 24.9808 115.578 24.7636 115.851 24.4867C116.401 23.9281 116.677 23.1998 116.677 22.3019C116.691 21.9004 116.625 21.5001 116.481 21.1256C116.338 20.751 116.121 20.4102 115.843 20.124C115.572 19.8458 115.247 19.6268 114.89 19.4806C114.532 19.3345 114.149 19.2642 113.764 19.2741V19.2776ZM104.181 2.00519C100.37 2.00294 96.6452 3.15148 93.4796 5.30474C90.3139 7.458 87.8506 10.5186 86.4031 14.0973C84.9555 17.676 84.5891 21.6109 85.3505 25.4016C86.1119 29.1923 87.9667 32.6674 90.6788 35.3848C92.077 34.7147 93.5366 34.1855 95.0365 33.8049C95.4585 33.6986 95.8804 33.6044 96.304 33.517C97.501 33.2689 98.726 33.1893 99.9445 33.2806C100.103 33.2659 100.259 33.2395 100.414 33.2017C100.782 33.1016 101.132 32.9437 101.452 32.7339C101.625 32.6302 101.785 32.504 101.928 32.3586C101.991 32.2154 102.041 32.0661 102.076 31.9131C102.213 31.3082 102.594 30.1739 103.696 29.9066C104.862 29.6255 106.326 30.0111 106.471 30.5526C106.665 31.2671 105.602 32.0194 104.576 32.3895C103.578 32.7511 102.709 32.4015 101.706 32.8693L101.622 32.9207C101.347 33.0956 101.054 33.2397 100.748 33.3508C101.176 33.3953 101.61 33.4502 102.061 33.5102C102.998 33.637 104.008 33.7809 105.178 33.8889C105.73 33.7638 106.008 33.3577 106.812 32.9498C107.993 32.3484 109.752 32.2404 111.445 32.9824C112.626 33.4965 113.932 34.612 112.935 35.5527C112.023 36.4095 110.31 36.8447 108.716 36.6236C106.719 36.3478 105.941 35.066 105.401 34.3652C105.132 34.213 104.837 34.1147 104.532 34.0756C103.533 33.9728 102.734 33.9145 101.919 33.8049C99.9816 33.5444 98.412 33.4073 96.3496 33.8323L96.3091 33.8426C96.6543 33.9279 96.9707 34.1054 97.2255 34.3567C97.426 34.541 97.6875 34.6419 97.958 34.6394C98.623 34.6394 99.5597 34.6531 100.41 35.138C101.531 35.7772 101.863 36.8259 101.536 37.6586C101.089 38.7878 99.9495 38.9403 99.0989 38.1624C98.0863 37.2371 97.8956 36.7488 97.666 35.8731C97.5749 35.5097 97.4435 35.1579 97.2745 34.8244C97.1766 34.7079 97.0838 34.5966 96.9893 34.4989C96.7833 34.283 96.4255 34.0123 95.6154 34.038L95.8264 33.9489C95.5867 34.002 95.3454 34.0516 95.1074 34.1116C93.6679 34.4761 92.2668 34.9816 90.9236 35.6212C93.1965 37.8189 95.9653 39.4175 98.9877 40.2771C102.01 41.1368 105.194 41.2312 108.261 40.5523C111.327 39.8734 114.183 38.4418 116.579 36.3828C118.974 34.3237 120.836 31.6998 122.002 28.741C123.167 25.7821 123.601 22.5784 123.264 19.41C122.928 16.2416 121.832 13.2053 120.072 10.5666C118.312 7.92789 115.942 5.76728 113.17 4.27386C110.397 2.78045 107.306 1.99973 104.167 2L104.181 2.00519ZM96.569 26.8137C95.8838 27.4226 95.0236 27.7264 93.9885 27.7252H89.0029V16.8752H92.856C93.89 16.8752 94.7502 17.1739 95.4366 17.7714C95.7685 18.0522 96.0335 18.4058 96.2115 18.8056C96.3895 19.2054 96.476 19.6409 96.4643 20.0795C96.4873 20.7498 96.2552 21.4033 95.8163 21.9044C97.0022 22.3956 97.5957 23.2604 97.5968 24.4987C97.6071 24.9381 97.5201 25.3742 97.3422 25.7748C97.1644 26.1755 96.9001 26.5305 96.569 26.8137ZM104.152 27.7252H101.367V16.8752H104.152V27.7252ZM113.747 27.9224C112.994 27.9438 112.245 27.8107 111.545 27.5313C110.844 27.2519 110.206 26.8318 109.669 26.2962C109.122 25.7935 108.69 25.176 108.402 24.4865C108.114 23.797 107.977 23.0522 108.002 22.3037C107.969 20.7581 108.528 19.4272 109.678 18.3111C110.786 17.2659 112.242 16.6851 113.755 16.6851C115.268 16.6851 116.724 17.2659 117.833 18.3111C118.994 19.4283 119.556 20.7592 119.52 22.3037C119.552 23.8573 118.989 25.1881 117.833 26.2962C117.293 26.8301 116.653 27.2489 115.951 27.5282C115.25 27.8075 114.5 27.9415 113.747 27.9224ZM26.5167 36.2501C26.5098 35.9888 26.5577 35.729 26.6572 35.4879C26.7567 35.2469 26.9056 35.0301 27.0939 34.8519C27.2748 34.6636 27.4923 34.5155 27.7326 34.417C27.9729 34.3185 28.2306 34.2716 28.4896 34.2795C28.8055 34.2646 29.1193 34.3387 29.3963 34.4935C29.6733 34.6484 29.9027 34.8779 30.0592 35.1569L29.4972 35.6041C29.3927 35.4292 29.2459 35.2843 29.0707 35.1832C28.8956 35.0821 28.6979 35.0283 28.4964 35.0267C28.3408 35.0227 28.1861 35.052 28.0425 35.1128C27.8988 35.1737 27.7694 35.2646 27.6627 35.3797C27.4476 35.6187 27.3284 35.9307 27.3284 36.2544C27.3284 36.5781 27.4476 36.8901 27.6627 37.1292C27.769 37.2448 27.8983 37.3361 28.042 37.3973C28.1858 37.4584 28.3406 37.4879 28.4964 37.4838C28.6967 37.4806 28.8932 37.4267 29.0679 37.3271C29.2426 37.2274 29.3902 37.0852 29.4972 36.9132L30.0592 37.3519C29.8991 37.6229 29.6715 37.8463 29.3993 37.9996C29.1208 38.155 28.8074 38.2347 28.4896 38.2309C28.2298 38.2362 27.9716 38.1877 27.7307 38.0884C27.4899 37.9892 27.2715 37.8412 27.0888 37.6534C26.9039 37.4718 26.7576 37.2535 26.6592 37.0121C26.5608 36.7707 26.5123 36.5113 26.5167 36.2501ZM33.6625 36.2501C33.6554 35.9892 33.7027 35.7298 33.8013 35.4889C33.8999 35.2479 34.0476 35.0308 34.2346 34.8519C34.6096 34.4833 35.111 34.2772 35.6329 34.2772C36.1548 34.2772 36.6563 34.4833 37.0312 34.8519C37.2135 35.0347 37.3582 35.2524 37.457 35.4925C37.5557 35.7325 37.6066 35.9899 37.6066 36.2501C37.6066 36.5102 37.5557 36.7678 37.457 37.0078C37.3582 37.2478 37.2135 37.4655 37.0312 37.6483C36.8491 37.8378 36.6303 37.9869 36.3886 38.0863C36.147 38.1856 35.8876 38.2332 35.627 38.2258C35.3677 38.2329 35.1098 38.1846 34.87 38.0843C34.6302 37.9839 34.4138 37.8337 34.2346 37.6432C34.0487 37.4645 33.9018 37.2481 33.8032 37.0082C33.7047 36.7682 33.6567 36.51 33.6625 36.2501ZM36.7882 36.2587C36.7918 36.0963 36.7639 35.9347 36.7059 35.7833C36.648 35.6319 36.5613 35.4936 36.4506 35.3762C36.3445 35.2631 36.2169 35.1729 36.0755 35.1113C35.934 35.0498 35.7817 35.0181 35.6279 35.0181C35.474 35.0181 35.3217 35.0498 35.1803 35.1113C35.0388 35.1729 34.9112 35.2631 34.8051 35.3762C34.6944 35.4936 34.6077 35.6319 34.5498 35.7833C34.4918 35.9347 34.4639 36.0963 34.4675 36.2587C34.4628 36.4192 34.4894 36.5791 34.5459 36.7291C34.6024 36.8791 34.6876 37.0163 34.7967 37.1326C34.9041 37.2444 35.0324 37.3332 35.1741 37.3939C35.3159 37.4546 35.4681 37.4859 35.6219 37.4859C35.7758 37.4859 35.928 37.4546 36.0698 37.3939C36.2115 37.3332 36.3398 37.2444 36.4472 37.1326C36.5585 37.0173 36.646 36.8807 36.7046 36.7306C36.7631 36.5805 36.7915 36.4201 36.7882 36.2587ZM41.2033 37.4992L41.6572 36.9852C41.9948 37.345 42.3441 37.5249 42.7053 37.5249C42.8572 37.5318 43.0077 37.4925 43.1374 37.4119C43.1902 37.3797 43.2336 37.3339 43.2633 37.2791C43.2929 37.2243 43.3077 37.1625 43.3061 37.1C43.3072 37.0521 43.2974 37.0047 43.2775 36.9613C43.2576 36.918 43.2281 36.8798 43.1914 36.8498C43.0657 36.7582 42.9282 36.6845 42.7829 36.6305L42.4032 36.4694C42.1281 36.3668 41.8766 36.2081 41.664 36.0033C41.5078 35.8304 41.4247 35.6021 41.4328 35.3676C41.427 35.2146 41.4575 35.0625 41.5215 34.9239C41.5855 34.7853 41.6812 34.6642 41.8007 34.5708C42.0724 34.3639 42.4065 34.2591 42.7458 34.2744C42.9904 34.2658 43.2336 34.314 43.4571 34.4152C43.6805 34.5165 43.8783 34.6682 44.0353 34.8587L43.6015 35.3591C43.4906 35.2367 43.3556 35.1393 43.2053 35.0732C43.055 35.0071 42.8927 34.9737 42.729 34.9752C42.3914 34.9752 42.2226 35.0952 42.2226 35.3368C42.2221 35.3815 42.2314 35.4257 42.2498 35.4663C42.2682 35.5069 42.2952 35.5428 42.3289 35.5715C42.4461 35.6623 42.5765 35.7341 42.7154 35.784L43.0733 35.9297C43.3621 36.0379 43.6262 36.2046 43.8496 36.4198C43.9297 36.5066 43.9921 36.6088 44.0333 36.7202C44.0744 36.8317 44.0934 36.9502 44.0893 37.0692C44.0968 37.2338 44.0648 37.3978 43.996 37.547C43.9272 37.6963 43.8237 37.8264 43.6943 37.926C43.4078 38.1346 43.0611 38.2406 42.7087 38.2275C42.4185 38.2385 42.13 38.178 41.8678 38.0512C41.6057 37.9244 41.3777 37.735 41.2033 37.4992ZM53.6299 35.7857V38.1504H52.8249V35.8954C52.8364 35.663 52.7624 35.4346 52.6173 35.2545C52.5458 35.1754 52.4582 35.1131 52.3606 35.0719C52.2629 35.0308 52.1576 35.0119 52.0519 35.0164C51.9426 35.0121 51.8336 35.0307 51.7317 35.0711C51.6297 35.1115 51.5371 35.1728 51.4595 35.2512C51.3837 35.3313 51.3246 35.4262 51.2857 35.5301C51.2468 35.634 51.229 35.7449 51.2334 35.856V38.1436H50.4351V35.8954C50.4458 35.6638 50.3698 35.4368 50.2224 35.2597C50.1513 35.1789 50.0634 35.1152 49.965 35.0731C49.8667 35.031 49.7603 35.0116 49.6537 35.0164C49.5439 35.0121 49.4344 35.0315 49.3325 35.0734C49.2307 35.1154 49.1388 35.1789 49.063 35.2597C48.9857 35.3452 48.9258 35.4454 48.8867 35.5545C48.8476 35.6636 48.8301 35.7794 48.8351 35.8954V38.1436H48.0351V34.3618H48.7777V34.7165C48.9173 34.5709 49.0854 34.4566 49.2711 34.3811C49.4569 34.3055 49.6562 34.2703 49.8562 34.2778C50.08 34.2624 50.3037 34.3095 50.5031 34.414C50.7024 34.5186 50.8698 34.6765 50.987 34.8707C51.1335 34.6757 51.3245 34.5198 51.5435 34.4166C51.7626 34.3133 52.0031 34.2657 52.2443 34.2778C52.4323 34.2684 52.6201 34.3002 52.7949 34.3712C52.9697 34.4422 53.1272 34.5506 53.257 34.6891C53.5145 34.9909 53.648 35.3817 53.6299 35.7806V35.7857ZM61.1234 36.526H58.3488C58.3879 36.8122 58.5327 37.0725 58.7539 37.2543C58.9853 37.4344 59.2709 37.5276 59.5623 37.5182C59.9662 37.5153 60.3537 37.3559 60.6458 37.0726L61.0255 37.6261C60.8297 37.8224 60.5974 37.9774 60.3422 38.0821C60.087 38.1868 59.8139 38.2391 59.5387 38.2361C59.2757 38.2428 59.0141 38.196 58.7692 38.0986C58.5243 38.0012 58.3011 37.8551 58.1125 37.6689C57.7468 37.2962 57.5402 36.7923 57.5373 36.2661C57.5345 35.74 57.7357 35.2338 58.0974 34.857C58.2725 34.6694 58.4846 34.5215 58.7199 34.4229C58.9552 34.3243 59.2083 34.2772 59.4627 34.2847C59.6903 34.2783 59.9167 34.3191 60.1283 34.4045C60.3398 34.4899 60.532 34.6183 60.6931 34.7816C60.8542 34.9422 60.9811 35.1348 61.0659 35.3474C61.1507 35.5599 61.1915 35.7878 61.1859 36.0171C61.1823 36.1867 61.1614 36.3555 61.1234 36.5208V36.526ZM58.364 35.8954H60.3893C60.3923 35.7692 60.3688 35.6438 60.3202 35.5277C60.2716 35.4115 60.199 35.3073 60.1074 35.222C59.9225 35.0535 59.6807 34.9639 59.4323 34.9718C59.1815 34.9672 58.9376 35.0562 58.7471 35.222C58.5476 35.3956 58.4125 35.6332 58.364 35.8954ZM67.3444 37.4667V38.1521C67.1278 38.2033 66.9067 38.232 66.6845 38.2378C66.3177 38.2605 65.9561 38.1417 65.6718 37.9054C65.4322 37.686 65.3124 37.3576 65.3124 36.9201V35.0712H64.7048V34.3704H65.3124V33.3765H66.1157V34.3704H67.2245V35.0712H66.1157V36.8498C66.1063 36.9423 66.1175 37.0357 66.1485 37.1232C66.1795 37.2107 66.2294 37.2901 66.2946 37.3553C66.4578 37.4687 66.6544 37.5219 66.8516 37.5061C66.9376 37.4992 67.1064 37.4855 67.3444 37.4598V37.4667ZM71.1991 33.3388C71.1476 33.2907 71.1067 33.2321 71.0791 33.1669C71.0514 33.1016 71.0377 33.0312 71.0388 32.9601C71.0381 32.8889 71.052 32.8183 71.0796 32.7528C71.1072 32.6873 71.1479 32.6284 71.1991 32.5797C71.2499 32.5285 71.3103 32.4882 71.3766 32.4611C71.443 32.4341 71.5141 32.4208 71.5856 32.4221C71.6561 32.4213 71.726 32.4349 71.7912 32.462C71.8564 32.489 71.9156 32.529 71.9654 32.5797C72.0163 32.6285 72.0567 32.6876 72.084 32.7531C72.1113 32.8185 72.1249 32.889 72.124 32.9601C72.1254 33.0311 72.112 33.1014 72.0847 33.1667C72.0573 33.232 72.0167 33.2907 71.9654 33.3388C71.9152 33.3887 71.8559 33.428 71.7907 33.4545C71.7255 33.4809 71.6558 33.494 71.5856 33.493C71.5134 33.4928 71.442 33.4778 71.3756 33.4489C71.3092 33.4201 71.2492 33.378 71.1991 33.3251V33.3388ZM71.1839 38.1521V34.3704H71.9805V38.1521H71.1839ZM75.9332 36.2569C75.926 35.9958 75.9735 35.736 76.0728 35.495C76.172 35.2539 76.3206 35.037 76.5087 34.8587C76.6897 34.6705 76.9073 34.5224 77.1475 34.4239C77.3877 34.3254 77.6455 34.2786 77.9045 34.2864C78.2206 34.2713 78.5346 34.3453 78.8119 34.5001C79.0892 34.655 79.3189 34.8846 79.4757 35.1637L78.9137 35.6109C78.8091 35.4358 78.662 35.2907 78.4865 35.1897C78.3111 35.0886 78.113 35.0349 77.9112 35.0335C77.7557 35.0299 77.6011 35.0594 77.4575 35.1202C77.3139 35.181 77.1844 35.2717 77.0775 35.3864C76.8635 35.626 76.745 35.9378 76.745 36.2612C76.745 36.5846 76.8635 36.8965 77.0775 37.136C77.1841 37.2514 77.3134 37.3426 77.4571 37.4037C77.6007 37.4648 77.7555 37.4945 77.9112 37.4907C78.1118 37.4874 78.3085 37.4335 78.4835 37.3339C78.6585 37.2343 78.8063 37.0921 78.9137 36.9201L79.4757 37.3588C79.3156 37.6298 79.088 37.8531 78.8158 38.0064C78.5368 38.1621 78.2228 38.2418 77.9045 38.2378C77.6449 38.2428 77.387 38.1942 77.1465 38.095C76.906 37.9957 76.6878 37.8478 76.5053 37.6603C76.3195 37.4779 76.1728 37.2585 76.0744 37.0158C75.9759 36.7731 75.9279 36.5125 75.9332 36.2501V36.2569Z" fill="#415739"/>
</svg>
